<mxfile host="app.diagrams.net" agent="Mozilla/5.0 (X11; Linux x86_64) AppleWebKit/537.36 (KHTML, like Gecko) Chrome/133.0.0.0 Safari/537.36" version="26.0.11">
  <diagram name="Страница — 1" id="3nzdwioMNdU5bhjPpn4M">
    <mxGraphModel dx="1533" dy="2560" grid="1" gridSize="10" guides="1" tooltips="1" connect="1" arrows="1" fold="1" page="1" pageScale="1" pageWidth="3300" pageHeight="2339" math="0" shadow="0">
      <root>
        <mxCell id="0" />
        <mxCell id="1" parent="0" />
        <mxCell id="YGld60m3BobG-WvfS-7C-3" style="edgeStyle=orthogonalEdgeStyle;rounded=0;orthogonalLoop=1;jettySize=auto;html=1;exitX=0.5;exitY=1;exitDx=0;exitDy=0;entryX=0.5;entryY=0;entryDx=0;entryDy=0;endArrow=none;startFill=0;" parent="1" source="XzOcoUJZ9QDszm1NcNFP-1" target="XzOcoUJZ9QDszm1NcNFP-2" edge="1">
          <mxGeometry relative="1" as="geometry" />
        </mxCell>
        <mxCell id="XzOcoUJZ9QDszm1NcNFP-1" value="&lt;font face=&quot;Lucida Console&quot;&gt;Начало void process()&lt;/font&gt;" style="rounded=1;whiteSpace=wrap;html=1;arcSize=50;" parent="1" vertex="1">
          <mxGeometry x="40" y="40" width="160" height="80" as="geometry" />
        </mxCell>
        <mxCell id="YGld60m3BobG-WvfS-7C-4" style="edgeStyle=orthogonalEdgeStyle;shape=connector;rounded=0;orthogonalLoop=1;jettySize=auto;html=1;exitX=0.5;exitY=1;exitDx=0;exitDy=0;entryX=0.5;entryY=0;entryDx=0;entryDy=0;strokeColor=default;align=center;verticalAlign=middle;fontFamily=Helvetica;fontSize=11;fontColor=default;labelBackgroundColor=default;startFill=0;endArrow=none;" parent="1" source="XzOcoUJZ9QDszm1NcNFP-2" target="XzOcoUJZ9QDszm1NcNFP-3" edge="1">
          <mxGeometry relative="1" as="geometry" />
        </mxCell>
        <mxCell id="XzOcoUJZ9QDszm1NcNFP-2" value="&lt;font style=&quot;font-size: 16px;&quot; face=&quot;Lucida Console&quot;&gt;Res res;&lt;/font&gt;&lt;div&gt;&lt;font style=&quot;font-size: 16px;&quot; face=&quot;Lucida Console&quot;&gt;String *s;&lt;/font&gt;&lt;/div&gt;" style="rounded=0;whiteSpace=wrap;html=1;strokeColor=default;align=center;verticalAlign=middle;arcSize=50;fontFamily=Helvetica;fontSize=12;fontColor=default;fillColor=default;" parent="1" vertex="1">
          <mxGeometry x="40" y="150" width="160" height="80" as="geometry" />
        </mxCell>
        <mxCell id="YGld60m3BobG-WvfS-7C-5" style="edgeStyle=orthogonalEdgeStyle;shape=connector;rounded=0;orthogonalLoop=1;jettySize=auto;html=1;exitX=0.5;exitY=1;exitDx=0;exitDy=0;entryX=0.5;entryY=0;entryDx=0;entryDy=0;strokeColor=default;align=center;verticalAlign=middle;fontFamily=Helvetica;fontSize=11;fontColor=default;labelBackgroundColor=default;startFill=0;endArrow=none;" parent="1" source="XzOcoUJZ9QDszm1NcNFP-3" target="XzOcoUJZ9QDszm1NcNFP-4" edge="1">
          <mxGeometry relative="1" as="geometry" />
        </mxCell>
        <mxCell id="XzOcoUJZ9QDszm1NcNFP-3" value="&lt;font face=&quot;Lucida Console&quot;&gt;s = (String *)malloc(&lt;br&gt;sizeof(String));&lt;/font&gt;" style="rounded=0;whiteSpace=wrap;html=1;strokeColor=default;align=center;verticalAlign=middle;arcSize=50;fontFamily=Helvetica;fontSize=12;fontColor=default;fillColor=default;" parent="1" vertex="1">
          <mxGeometry x="40" y="260" width="160" height="80" as="geometry" />
        </mxCell>
        <mxCell id="YGld60m3BobG-WvfS-7C-6" style="edgeStyle=orthogonalEdgeStyle;shape=connector;rounded=0;orthogonalLoop=1;jettySize=auto;html=1;exitX=0.5;exitY=1;exitDx=0;exitDy=0;entryX=0.5;entryY=0;entryDx=0;entryDy=0;strokeColor=default;align=center;verticalAlign=middle;fontFamily=Helvetica;fontSize=11;fontColor=default;labelBackgroundColor=default;startFill=0;endArrow=none;" parent="1" source="XzOcoUJZ9QDszm1NcNFP-4" target="XzOcoUJZ9QDszm1NcNFP-6" edge="1">
          <mxGeometry relative="1" as="geometry" />
        </mxCell>
        <mxCell id="YGld60m3BobG-WvfS-7C-13" style="edgeStyle=orthogonalEdgeStyle;shape=connector;rounded=0;orthogonalLoop=1;jettySize=auto;html=1;exitX=1;exitY=0.5;exitDx=0;exitDy=0;entryX=0.5;entryY=0;entryDx=0;entryDy=0;strokeColor=default;align=center;verticalAlign=middle;fontFamily=Helvetica;fontSize=11;fontColor=default;labelBackgroundColor=default;startFill=0;endArrow=classic;endFill=1;" parent="1" source="XzOcoUJZ9QDszm1NcNFP-4" target="YGld60m3BobG-WvfS-7C-1" edge="1">
          <mxGeometry relative="1" as="geometry">
            <Array as="points">
              <mxPoint x="410" y="410" />
              <mxPoint x="410" y="800" />
              <mxPoint x="120" y="800" />
            </Array>
          </mxGeometry>
        </mxCell>
        <mxCell id="XzOcoUJZ9QDszm1NcNFP-4" value="&lt;font style=&quot;font-size: 10px;&quot; face=&quot;Lucida Console&quot;&gt;(res = read_line(s))&lt;br&gt;&amp;nbsp;== EOF_ERR&lt;/font&gt;" style="rhombus;whiteSpace=wrap;html=1;rounded=0;strokeColor=default;align=center;verticalAlign=middle;arcSize=50;fontFamily=Helvetica;fontSize=12;fontColor=default;fillColor=default;" parent="1" vertex="1">
          <mxGeometry x="40" y="370" width="160" height="80" as="geometry" />
        </mxCell>
        <mxCell id="YGld60m3BobG-WvfS-7C-7" style="edgeStyle=orthogonalEdgeStyle;shape=connector;rounded=0;orthogonalLoop=1;jettySize=auto;html=1;exitX=0.5;exitY=1;exitDx=0;exitDy=0;entryX=0.5;entryY=0;entryDx=0;entryDy=0;strokeColor=default;align=center;verticalAlign=middle;fontFamily=Helvetica;fontSize=11;fontColor=default;labelBackgroundColor=default;startFill=0;endArrow=none;" parent="1" source="XzOcoUJZ9QDszm1NcNFP-6" target="XzOcoUJZ9QDszm1NcNFP-7" edge="1">
          <mxGeometry relative="1" as="geometry" />
        </mxCell>
        <mxCell id="XzOcoUJZ9QDszm1NcNFP-6" value="&lt;font style=&quot;font-size: 13px;&quot; face=&quot;Lucida Console&quot;&gt;clear_spaces(s);&lt;br&gt;task(s);&lt;/font&gt;" style="shape=process;whiteSpace=wrap;html=1;backgroundOutline=1;rounded=0;strokeColor=default;align=center;verticalAlign=middle;arcSize=50;fontFamily=Helvetica;fontSize=12;fontColor=default;fillColor=default;" parent="1" vertex="1">
          <mxGeometry x="40" y="480" width="160" height="80" as="geometry" />
        </mxCell>
        <mxCell id="YGld60m3BobG-WvfS-7C-8" style="edgeStyle=orthogonalEdgeStyle;shape=connector;rounded=0;orthogonalLoop=1;jettySize=auto;html=1;exitX=1;exitY=0.5;exitDx=0;exitDy=0;entryX=0;entryY=0.5;entryDx=0;entryDy=0;strokeColor=default;align=center;verticalAlign=middle;fontFamily=Helvetica;fontSize=11;fontColor=default;labelBackgroundColor=default;startFill=0;endArrow=none;" parent="1" source="XzOcoUJZ9QDszm1NcNFP-7" target="XzOcoUJZ9QDszm1NcNFP-8" edge="1">
          <mxGeometry relative="1" as="geometry" />
        </mxCell>
        <mxCell id="YGld60m3BobG-WvfS-7C-9" style="edgeStyle=orthogonalEdgeStyle;shape=connector;rounded=0;orthogonalLoop=1;jettySize=auto;html=1;exitX=0.5;exitY=1;exitDx=0;exitDy=0;entryX=0.5;entryY=0;entryDx=0;entryDy=0;strokeColor=default;align=center;verticalAlign=middle;fontFamily=Helvetica;fontSize=11;fontColor=default;labelBackgroundColor=default;startFill=0;endArrow=none;" parent="1" source="XzOcoUJZ9QDszm1NcNFP-7" target="XzOcoUJZ9QDszm1NcNFP-9" edge="1">
          <mxGeometry relative="1" as="geometry" />
        </mxCell>
        <mxCell id="XzOcoUJZ9QDszm1NcNFP-7" value="&lt;font face=&quot;Lucida Console&quot;&gt;s-&amp;gt;head != s-&amp;gt;tail&lt;/font&gt;" style="rhombus;whiteSpace=wrap;html=1;rounded=0;strokeColor=default;align=center;verticalAlign=middle;arcSize=50;fontFamily=Helvetica;fontSize=12;fontColor=default;fillColor=default;" parent="1" vertex="1">
          <mxGeometry x="40" y="590" width="160" height="80" as="geometry" />
        </mxCell>
        <mxCell id="YGld60m3BobG-WvfS-7C-14" style="edgeStyle=orthogonalEdgeStyle;shape=connector;rounded=0;orthogonalLoop=1;jettySize=auto;html=1;exitX=0.5;exitY=1;exitDx=0;exitDy=0;entryX=1;entryY=0.5;entryDx=0;entryDy=0;strokeColor=default;align=center;verticalAlign=middle;fontFamily=Helvetica;fontSize=11;fontColor=default;labelBackgroundColor=default;startFill=0;endArrow=classic;endFill=1;" parent="1" source="XzOcoUJZ9QDszm1NcNFP-8" target="XzOcoUJZ9QDszm1NcNFP-9" edge="1">
          <mxGeometry relative="1" as="geometry" />
        </mxCell>
        <mxCell id="XzOcoUJZ9QDszm1NcNFP-8" value="&lt;font face=&quot;Lucida Console&quot;&gt;s-&amp;gt;tail = s-&amp;gt;tail&lt;br&gt;-&amp;gt;prev;&lt;br&gt;free(s-&amp;gt;tail-&amp;gt;next);&lt;br&gt;s-&amp;gt;tail-&amp;gt;next = NULL;&lt;/font&gt;" style="rounded=0;whiteSpace=wrap;html=1;strokeColor=default;align=center;verticalAlign=middle;arcSize=50;fontFamily=Helvetica;fontSize=12;fontColor=default;fillColor=default;" parent="1" vertex="1">
          <mxGeometry x="240" y="590" width="160" height="80" as="geometry" />
        </mxCell>
        <mxCell id="YGld60m3BobG-WvfS-7C-12" style="edgeStyle=orthogonalEdgeStyle;shape=connector;rounded=0;orthogonalLoop=1;jettySize=auto;html=1;exitX=0;exitY=0.5;exitDx=0;exitDy=0;entryX=0;entryY=0.5;entryDx=0;entryDy=0;strokeColor=default;align=center;verticalAlign=middle;fontFamily=Helvetica;fontSize=11;fontColor=default;labelBackgroundColor=default;startFill=0;endArrow=classic;endFill=1;" parent="1" source="XzOcoUJZ9QDszm1NcNFP-9" target="XzOcoUJZ9QDszm1NcNFP-3" edge="1">
          <mxGeometry relative="1" as="geometry">
            <Array as="points">
              <mxPoint x="30" y="740" />
              <mxPoint x="30" y="300" />
            </Array>
          </mxGeometry>
        </mxCell>
        <mxCell id="XzOcoUJZ9QDszm1NcNFP-9" value="&lt;font face=&quot;Lucida Console&quot;&gt;print_string(*s);&lt;br&gt;free_string(s);&lt;/font&gt;" style="shape=process;whiteSpace=wrap;html=1;backgroundOutline=1;rounded=0;strokeColor=default;align=center;verticalAlign=middle;arcSize=50;fontFamily=Helvetica;fontSize=12;fontColor=default;fillColor=default;" parent="1" vertex="1">
          <mxGeometry x="40" y="700" width="160" height="80" as="geometry" />
        </mxCell>
        <mxCell id="YGld60m3BobG-WvfS-7C-11" style="edgeStyle=orthogonalEdgeStyle;shape=connector;rounded=0;orthogonalLoop=1;jettySize=auto;html=1;exitX=0.5;exitY=1;exitDx=0;exitDy=0;entryX=0.5;entryY=0;entryDx=0;entryDy=0;strokeColor=default;align=center;verticalAlign=middle;fontFamily=Helvetica;fontSize=11;fontColor=default;labelBackgroundColor=default;startFill=0;endArrow=none;" parent="1" source="YGld60m3BobG-WvfS-7C-1" target="YGld60m3BobG-WvfS-7C-2" edge="1">
          <mxGeometry relative="1" as="geometry" />
        </mxCell>
        <mxCell id="YGld60m3BobG-WvfS-7C-1" value="&lt;font style=&quot;font-size: 13px;&quot; face=&quot;Lucida Console&quot;&gt;free_string(s);&lt;/font&gt;" style="shape=process;whiteSpace=wrap;html=1;backgroundOutline=1;" parent="1" vertex="1">
          <mxGeometry x="40" y="810" width="160" height="80" as="geometry" />
        </mxCell>
        <mxCell id="YGld60m3BobG-WvfS-7C-2" value="&lt;font style=&quot;font-size: 18px;&quot; face=&quot;Lucida Console&quot;&gt;Конец&lt;/font&gt;" style="rounded=1;whiteSpace=wrap;html=1;arcSize=50;" parent="1" vertex="1">
          <mxGeometry x="40" y="920" width="160" height="80" as="geometry" />
        </mxCell>
        <mxCell id="YGld60m3BobG-WvfS-7C-30" style="edgeStyle=orthogonalEdgeStyle;shape=connector;rounded=0;orthogonalLoop=1;jettySize=auto;html=1;exitX=0.5;exitY=1;exitDx=0;exitDy=0;entryX=0.5;entryY=0;entryDx=0;entryDy=0;strokeColor=default;align=center;verticalAlign=middle;fontFamily=Helvetica;fontSize=11;fontColor=default;labelBackgroundColor=default;startFill=0;endArrow=none;" parent="1" source="YGld60m3BobG-WvfS-7C-15" target="YGld60m3BobG-WvfS-7C-17" edge="1">
          <mxGeometry relative="1" as="geometry" />
        </mxCell>
        <mxCell id="YGld60m3BobG-WvfS-7C-15" value="&lt;font face=&quot;Lucida Console&quot;&gt;Начало void task(&lt;br&gt;String *s)&lt;/font&gt;" style="rounded=1;whiteSpace=wrap;html=1;fontFamily=Helvetica;fontSize=11;fontColor=default;labelBackgroundColor=default;arcSize=50;" parent="1" vertex="1">
          <mxGeometry x="440" y="40" width="160" height="80" as="geometry" />
        </mxCell>
        <mxCell id="YGld60m3BobG-WvfS-7C-31" style="edgeStyle=orthogonalEdgeStyle;shape=connector;rounded=0;orthogonalLoop=1;jettySize=auto;html=1;exitX=0.5;exitY=1;exitDx=0;exitDy=0;entryX=0.5;entryY=0;entryDx=0;entryDy=0;strokeColor=default;align=center;verticalAlign=middle;fontFamily=Helvetica;fontSize=11;fontColor=default;labelBackgroundColor=default;startFill=0;endArrow=none;" parent="1" source="YGld60m3BobG-WvfS-7C-17" target="YGld60m3BobG-WvfS-7C-18" edge="1">
          <mxGeometry relative="1" as="geometry" />
        </mxCell>
        <mxCell id="YGld60m3BobG-WvfS-7C-17" value="&lt;font face=&quot;Lucida Console&quot;&gt;char c = get_key_char(*s);&lt;/font&gt;" style="shape=process;whiteSpace=wrap;html=1;backgroundOutline=1;" parent="1" vertex="1">
          <mxGeometry x="440" y="150" width="160" height="80" as="geometry" />
        </mxCell>
        <mxCell id="YGld60m3BobG-WvfS-7C-32" style="edgeStyle=orthogonalEdgeStyle;shape=connector;rounded=0;orthogonalLoop=1;jettySize=auto;html=1;exitX=0.5;exitY=1;exitDx=0;exitDy=0;entryX=0.5;entryY=0;entryDx=0;entryDy=0;strokeColor=default;align=center;verticalAlign=middle;fontFamily=Helvetica;fontSize=11;fontColor=default;labelBackgroundColor=default;startFill=0;endArrow=none;" parent="1" source="YGld60m3BobG-WvfS-7C-18" target="YGld60m3BobG-WvfS-7C-19" edge="1">
          <mxGeometry relative="1" as="geometry" />
        </mxCell>
        <mxCell id="YGld60m3BobG-WvfS-7C-18" value="&lt;font face=&quot;Lucida Console&quot;&gt;CharNode *next = NULL, *prev = NULL, *last = NULL;&lt;/font&gt;&lt;div&gt;&lt;font face=&quot;Lucida Console&quot;&gt;String *word = NULL;&lt;/font&gt;&lt;/div&gt;" style="rounded=0;whiteSpace=wrap;html=1;fontFamily=Helvetica;fontSize=11;fontColor=default;labelBackgroundColor=none;" parent="1" vertex="1">
          <mxGeometry x="440" y="260" width="160" height="80" as="geometry" />
        </mxCell>
        <mxCell id="YGld60m3BobG-WvfS-7C-33" style="edgeStyle=orthogonalEdgeStyle;shape=connector;rounded=0;orthogonalLoop=1;jettySize=auto;html=1;exitX=0.5;exitY=1;exitDx=0;exitDy=0;entryX=0.5;entryY=0;entryDx=0;entryDy=0;strokeColor=default;align=center;verticalAlign=middle;fontFamily=Helvetica;fontSize=11;fontColor=default;labelBackgroundColor=default;startFill=0;endArrow=none;" parent="1" source="YGld60m3BobG-WvfS-7C-19" target="YGld60m3BobG-WvfS-7C-20" edge="1">
          <mxGeometry relative="1" as="geometry" />
        </mxCell>
        <mxCell id="YGld60m3BobG-WvfS-7C-46" style="edgeStyle=orthogonalEdgeStyle;shape=connector;rounded=0;orthogonalLoop=1;jettySize=auto;html=1;exitX=1;exitY=0.5;exitDx=0;exitDy=0;entryX=0;entryY=0.5;entryDx=0;entryDy=0;strokeColor=default;align=center;verticalAlign=middle;fontFamily=Helvetica;fontSize=11;fontColor=default;labelBackgroundColor=default;startFill=0;endArrow=none;" parent="1" source="YGld60m3BobG-WvfS-7C-19" target="YGld60m3BobG-WvfS-7C-45" edge="1">
          <mxGeometry relative="1" as="geometry" />
        </mxCell>
        <mxCell id="YGld60m3BobG-WvfS-7C-19" value="&lt;font face=&quot;Lucida Console&quot;&gt;CharNode *ptr = s-&amp;gt;head;&lt;br&gt;ptr != NULL;&lt;br&gt;ptr = next&lt;/font&gt;" style="shape=hexagon;perimeter=hexagonPerimeter2;whiteSpace=wrap;html=1;fixedSize=1;fontFamily=Helvetica;fontSize=11;fontColor=default;labelBackgroundColor=none;" parent="1" vertex="1">
          <mxGeometry x="440" y="370" width="160" height="80" as="geometry" />
        </mxCell>
        <mxCell id="YGld60m3BobG-WvfS-7C-34" style="edgeStyle=orthogonalEdgeStyle;shape=connector;rounded=0;orthogonalLoop=1;jettySize=auto;html=1;exitX=0.5;exitY=1;exitDx=0;exitDy=0;entryX=0.5;entryY=0;entryDx=0;entryDy=0;strokeColor=default;align=center;verticalAlign=middle;fontFamily=Helvetica;fontSize=11;fontColor=default;labelBackgroundColor=default;startFill=0;endArrow=none;" parent="1" source="YGld60m3BobG-WvfS-7C-20" target="YGld60m3BobG-WvfS-7C-21" edge="1">
          <mxGeometry relative="1" as="geometry" />
        </mxCell>
        <mxCell id="YGld60m3BobG-WvfS-7C-20" value="&lt;font face=&quot;Lucida Console&quot;&gt;next = ptr-&amp;gt;next;&lt;/font&gt;" style="rounded=0;whiteSpace=wrap;html=1;fontFamily=Helvetica;fontSize=11;fontColor=default;labelBackgroundColor=default;" parent="1" vertex="1">
          <mxGeometry x="440" y="480" width="160" height="80" as="geometry" />
        </mxCell>
        <mxCell id="YGld60m3BobG-WvfS-7C-35" style="edgeStyle=orthogonalEdgeStyle;shape=connector;rounded=0;orthogonalLoop=1;jettySize=auto;html=1;exitX=0.5;exitY=1;exitDx=0;exitDy=0;entryX=0.5;entryY=0;entryDx=0;entryDy=0;strokeColor=default;align=center;verticalAlign=middle;fontFamily=Helvetica;fontSize=11;fontColor=default;labelBackgroundColor=default;startFill=0;endArrow=none;" parent="1" source="YGld60m3BobG-WvfS-7C-21" target="YGld60m3BobG-WvfS-7C-22" edge="1">
          <mxGeometry relative="1" as="geometry" />
        </mxCell>
        <mxCell id="YGld60m3BobG-WvfS-7C-36" style="edgeStyle=orthogonalEdgeStyle;shape=connector;rounded=0;orthogonalLoop=1;jettySize=auto;html=1;exitX=1;exitY=0.5;exitDx=0;exitDy=0;entryX=0;entryY=0.5;entryDx=0;entryDy=0;strokeColor=default;align=center;verticalAlign=middle;fontFamily=Helvetica;fontSize=11;fontColor=default;labelBackgroundColor=default;startFill=0;endArrow=none;" parent="1" source="YGld60m3BobG-WvfS-7C-21" target="YGld60m3BobG-WvfS-7C-23" edge="1">
          <mxGeometry relative="1" as="geometry" />
        </mxCell>
        <mxCell id="YGld60m3BobG-WvfS-7C-21" value="&lt;font face=&quot;Lucida Console&quot;&gt;isblank(ptr-&amp;gt;c) &lt;br&gt;&amp;amp;&amp;amp; !word&lt;/font&gt;" style="rhombus;whiteSpace=wrap;html=1;fontFamily=Helvetica;fontSize=11;fontColor=default;labelBackgroundColor=none;" parent="1" vertex="1">
          <mxGeometry x="440" y="590" width="160" height="80" as="geometry" />
        </mxCell>
        <mxCell id="YGld60m3BobG-WvfS-7C-37" style="edgeStyle=orthogonalEdgeStyle;shape=connector;rounded=0;orthogonalLoop=1;jettySize=auto;html=1;exitX=1;exitY=0.5;exitDx=0;exitDy=0;strokeColor=default;align=center;verticalAlign=middle;fontFamily=Helvetica;fontSize=11;fontColor=default;labelBackgroundColor=default;startFill=0;endArrow=classic;endFill=1;" parent="1" source="YGld60m3BobG-WvfS-7C-22" edge="1">
          <mxGeometry relative="1" as="geometry">
            <mxPoint x="630" y="629.9999999999998" as="targetPoint" />
          </mxGeometry>
        </mxCell>
        <mxCell id="YGld60m3BobG-WvfS-7C-22" value="&lt;div&gt;&lt;font&gt;&lt;font face=&quot;Lucida Console&quot; style=&quot;&quot;&gt;word = (String *)&lt;br&gt;malloc(sizeof(String));&lt;br&gt;&lt;/font&gt;&lt;span style=&quot;font-family: &amp;quot;Lucida Console&amp;quot;; color: light-dark(rgb(0, 0, 0), rgb(255, 255, 255));&quot;&gt;word-&amp;gt;head = ptr;&lt;/span&gt;&lt;/font&gt;&lt;/div&gt;" style="rounded=0;whiteSpace=wrap;html=1;fontFamily=Helvetica;fontSize=11;fontColor=default;labelBackgroundColor=none;" parent="1" vertex="1">
          <mxGeometry x="440" y="700" width="160" height="80" as="geometry" />
        </mxCell>
        <mxCell id="YGld60m3BobG-WvfS-7C-38" style="edgeStyle=orthogonalEdgeStyle;shape=connector;rounded=0;orthogonalLoop=1;jettySize=auto;html=1;exitX=0.5;exitY=1;exitDx=0;exitDy=0;entryX=0.5;entryY=0;entryDx=0;entryDy=0;strokeColor=default;align=center;verticalAlign=middle;fontFamily=Helvetica;fontSize=11;fontColor=default;labelBackgroundColor=default;startFill=0;endArrow=none;" parent="1" source="YGld60m3BobG-WvfS-7C-23" target="YGld60m3BobG-WvfS-7C-24" edge="1">
          <mxGeometry relative="1" as="geometry" />
        </mxCell>
        <mxCell id="YGld60m3BobG-WvfS-7C-43" style="edgeStyle=orthogonalEdgeStyle;shape=connector;rounded=0;orthogonalLoop=1;jettySize=auto;html=1;exitX=1;exitY=0.5;exitDx=0;exitDy=0;entryX=0;entryY=0.5;entryDx=0;entryDy=0;strokeColor=default;align=center;verticalAlign=middle;fontFamily=Helvetica;fontSize=11;fontColor=default;labelBackgroundColor=default;startFill=0;endArrow=none;" parent="1" source="YGld60m3BobG-WvfS-7C-23" target="YGld60m3BobG-WvfS-7C-28" edge="1">
          <mxGeometry relative="1" as="geometry" />
        </mxCell>
        <mxCell id="YGld60m3BobG-WvfS-7C-23" value="&lt;font face=&quot;Lucida Console&quot;&gt;isblank(ptr-&amp;gt;c) &lt;br&gt;&amp;amp;&amp;amp; word&lt;/font&gt;" style="rhombus;whiteSpace=wrap;html=1;fontFamily=Helvetica;fontSize=11;fontColor=default;labelBackgroundColor=default;" parent="1" vertex="1">
          <mxGeometry x="640" y="590" width="160" height="80" as="geometry" />
        </mxCell>
        <mxCell id="YGld60m3BobG-WvfS-7C-39" style="edgeStyle=orthogonalEdgeStyle;shape=connector;rounded=0;orthogonalLoop=1;jettySize=auto;html=1;exitX=0.5;exitY=1;exitDx=0;exitDy=0;entryX=0.5;entryY=0;entryDx=0;entryDy=0;strokeColor=default;align=center;verticalAlign=middle;fontFamily=Helvetica;fontSize=11;fontColor=default;labelBackgroundColor=default;startFill=0;endArrow=none;" parent="1" source="YGld60m3BobG-WvfS-7C-24" target="YGld60m3BobG-WvfS-7C-25" edge="1">
          <mxGeometry relative="1" as="geometry" />
        </mxCell>
        <mxCell id="YGld60m3BobG-WvfS-7C-24" value="&lt;font style=&quot;font-size: 14px;&quot; face=&quot;Lucida Console&quot;&gt;word-&amp;gt;tail = ptr;&lt;/font&gt;" style="rounded=0;whiteSpace=wrap;html=1;fontFamily=Helvetica;fontSize=11;fontColor=default;labelBackgroundColor=default;" parent="1" vertex="1">
          <mxGeometry x="640" y="700" width="160" height="80" as="geometry" />
        </mxCell>
        <mxCell id="YGld60m3BobG-WvfS-7C-40" style="edgeStyle=orthogonalEdgeStyle;shape=connector;rounded=0;orthogonalLoop=1;jettySize=auto;html=1;exitX=1;exitY=0.5;exitDx=0;exitDy=0;entryX=0;entryY=0.5;entryDx=0;entryDy=0;strokeColor=default;align=center;verticalAlign=middle;fontFamily=Helvetica;fontSize=11;fontColor=default;labelBackgroundColor=default;startFill=0;endArrow=none;" parent="1" source="YGld60m3BobG-WvfS-7C-25" target="YGld60m3BobG-WvfS-7C-26" edge="1">
          <mxGeometry relative="1" as="geometry" />
        </mxCell>
        <mxCell id="YGld60m3BobG-WvfS-7C-42" style="edgeStyle=orthogonalEdgeStyle;shape=connector;rounded=0;orthogonalLoop=1;jettySize=auto;html=1;exitX=0.5;exitY=1;exitDx=0;exitDy=0;entryX=0.5;entryY=0;entryDx=0;entryDy=0;strokeColor=default;align=center;verticalAlign=middle;fontFamily=Helvetica;fontSize=11;fontColor=default;labelBackgroundColor=default;startFill=0;endArrow=none;" parent="1" source="YGld60m3BobG-WvfS-7C-25" target="YGld60m3BobG-WvfS-7C-27" edge="1">
          <mxGeometry relative="1" as="geometry" />
        </mxCell>
        <mxCell id="YGld60m3BobG-WvfS-7C-25" value="&lt;font style=&quot;font-size: 14px;&quot; face=&quot;Lucida Console&quot;&gt;prev-&amp;gt;c == c&lt;/font&gt;" style="rhombus;whiteSpace=wrap;html=1;fontFamily=Helvetica;fontSize=11;fontColor=default;labelBackgroundColor=default;" parent="1" vertex="1">
          <mxGeometry x="640" y="810" width="160" height="80" as="geometry" />
        </mxCell>
        <mxCell id="YGld60m3BobG-WvfS-7C-41" style="edgeStyle=orthogonalEdgeStyle;shape=connector;rounded=0;orthogonalLoop=1;jettySize=auto;html=1;exitX=0.5;exitY=1;exitDx=0;exitDy=0;entryX=1;entryY=0.5;entryDx=0;entryDy=0;strokeColor=default;align=center;verticalAlign=middle;fontFamily=Helvetica;fontSize=11;fontColor=default;labelBackgroundColor=default;startFill=0;endArrow=classic;endFill=1;" parent="1" source="YGld60m3BobG-WvfS-7C-26" target="YGld60m3BobG-WvfS-7C-27" edge="1">
          <mxGeometry relative="1" as="geometry" />
        </mxCell>
        <mxCell id="YGld60m3BobG-WvfS-7C-26" value="&lt;font face=&quot;Lucida Console&quot;&gt;insert_word(s, word, last);&lt;br&gt;last = word-&amp;gt;tail;&lt;/font&gt;" style="shape=process;whiteSpace=wrap;html=1;backgroundOutline=1;fontFamily=Helvetica;fontSize=11;fontColor=default;labelBackgroundColor=none;" parent="1" vertex="1">
          <mxGeometry x="840" y="810" width="160" height="80" as="geometry" />
        </mxCell>
        <mxCell id="YGld60m3BobG-WvfS-7C-44" style="edgeStyle=orthogonalEdgeStyle;shape=connector;rounded=0;orthogonalLoop=1;jettySize=auto;html=1;exitX=1;exitY=0.75;exitDx=0;exitDy=0;strokeColor=default;align=center;verticalAlign=middle;fontFamily=Helvetica;fontSize=11;fontColor=default;labelBackgroundColor=default;startFill=0;endArrow=classic;endFill=1;" parent="1" source="YGld60m3BobG-WvfS-7C-27" edge="1">
          <mxGeometry relative="1" as="geometry">
            <mxPoint x="1030" y="630" as="targetPoint" />
          </mxGeometry>
        </mxCell>
        <mxCell id="YGld60m3BobG-WvfS-7C-27" value="&lt;font style=&quot;font-size: 16px;&quot; face=&quot;Lucida Console&quot;&gt;free(word);&lt;br&gt;word = NULL;&lt;/font&gt;" style="rounded=0;whiteSpace=wrap;html=1;fontFamily=Helvetica;fontSize=11;fontColor=default;labelBackgroundColor=default;" parent="1" vertex="1">
          <mxGeometry x="640" y="920" width="160" height="80" as="geometry" />
        </mxCell>
        <mxCell id="YGld60m3BobG-WvfS-7C-47" style="edgeStyle=orthogonalEdgeStyle;shape=connector;rounded=0;orthogonalLoop=1;jettySize=auto;html=1;exitX=0.5;exitY=1;exitDx=0;exitDy=0;entryX=0.5;entryY=0;entryDx=0;entryDy=0;strokeColor=default;align=center;verticalAlign=middle;fontFamily=Helvetica;fontSize=11;fontColor=default;labelBackgroundColor=default;startFill=0;endArrow=none;" parent="1" source="YGld60m3BobG-WvfS-7C-28" target="YGld60m3BobG-WvfS-7C-29" edge="1">
          <mxGeometry relative="1" as="geometry" />
        </mxCell>
        <mxCell id="YGld60m3BobG-WvfS-7C-48" style="edgeStyle=orthogonalEdgeStyle;shape=connector;rounded=0;orthogonalLoop=1;jettySize=auto;html=1;exitX=1;exitY=0.5;exitDx=0;exitDy=0;strokeColor=default;align=center;verticalAlign=middle;fontFamily=Helvetica;fontSize=11;fontColor=default;labelBackgroundColor=default;startFill=0;endArrow=classic;endFill=1;" parent="1" source="YGld60m3BobG-WvfS-7C-28" edge="1">
          <mxGeometry relative="1" as="geometry">
            <mxPoint x="630" y="410" as="targetPoint" />
            <Array as="points">
              <mxPoint x="1210" y="630" />
              <mxPoint x="1210" y="501" />
              <mxPoint x="631" y="501" />
            </Array>
          </mxGeometry>
        </mxCell>
        <mxCell id="YGld60m3BobG-WvfS-7C-28" value="&lt;font style=&quot;font-size: 13px;&quot; face=&quot;Lucida Console&quot;&gt;ptr == s-&amp;gt;tail&lt;/font&gt;" style="rhombus;whiteSpace=wrap;html=1;fontFamily=Helvetica;fontSize=11;fontColor=default;labelBackgroundColor=default;" parent="1" vertex="1">
          <mxGeometry x="1040" y="590" width="160" height="80" as="geometry" />
        </mxCell>
        <mxCell id="YGld60m3BobG-WvfS-7C-49" style="edgeStyle=orthogonalEdgeStyle;shape=connector;rounded=0;orthogonalLoop=1;jettySize=auto;html=1;exitX=0.5;exitY=1;exitDx=0;exitDy=0;entryX=0;entryY=0.5;entryDx=0;entryDy=0;strokeColor=default;align=center;verticalAlign=middle;fontFamily=Helvetica;fontSize=11;fontColor=default;labelBackgroundColor=default;startFill=0;endArrow=none;" parent="1" source="YGld60m3BobG-WvfS-7C-29" target="YGld60m3BobG-WvfS-7C-19" edge="1">
          <mxGeometry relative="1" as="geometry">
            <Array as="points">
              <mxPoint x="1120" y="1010" />
              <mxPoint x="430" y="1010" />
              <mxPoint x="430" y="410" />
            </Array>
          </mxGeometry>
        </mxCell>
        <mxCell id="YGld60m3BobG-WvfS-7C-29" value="&lt;font style=&quot;font-size: 18px;&quot; face=&quot;Lucida Console&quot;&gt;prev = ptr;&lt;/font&gt;" style="rounded=0;whiteSpace=wrap;html=1;fontFamily=Helvetica;fontSize=11;fontColor=default;labelBackgroundColor=default;" parent="1" vertex="1">
          <mxGeometry x="1040" y="700" width="160" height="80" as="geometry" />
        </mxCell>
        <mxCell id="YGld60m3BobG-WvfS-7C-45" value="&lt;font style=&quot;font-size: 18px;&quot; face=&quot;Lucida Console&quot;&gt;Конец&lt;/font&gt;" style="rounded=1;whiteSpace=wrap;html=1;fontFamily=Helvetica;fontSize=11;fontColor=default;labelBackgroundColor=default;arcSize=50;" parent="1" vertex="1">
          <mxGeometry x="640" y="370" width="160" height="80" as="geometry" />
        </mxCell>
        <mxCell id="YGld60m3BobG-WvfS-7C-66" style="edgeStyle=orthogonalEdgeStyle;shape=connector;rounded=0;orthogonalLoop=1;jettySize=auto;html=1;exitX=0.5;exitY=1;exitDx=0;exitDy=0;entryX=0.5;entryY=0;entryDx=0;entryDy=0;strokeColor=default;align=center;verticalAlign=middle;fontFamily=Helvetica;fontSize=11;fontColor=default;labelBackgroundColor=default;startFill=0;endArrow=none;" parent="1" source="YGld60m3BobG-WvfS-7C-50" target="YGld60m3BobG-WvfS-7C-51" edge="1">
          <mxGeometry relative="1" as="geometry" />
        </mxCell>
        <mxCell id="YGld60m3BobG-WvfS-7C-50" value="&lt;font style=&quot;font-size: 12px;&quot; face=&quot;Lucida Console&quot;&gt;Начало Res read_line(String *s)&lt;/font&gt;" style="rounded=1;whiteSpace=wrap;html=1;fontFamily=Helvetica;fontSize=11;fontColor=default;labelBackgroundColor=none;arcSize=50;" parent="1" vertex="1">
          <mxGeometry x="1240" y="40" width="160" height="80" as="geometry" />
        </mxCell>
        <mxCell id="YGld60m3BobG-WvfS-7C-67" style="edgeStyle=orthogonalEdgeStyle;shape=connector;rounded=0;orthogonalLoop=1;jettySize=auto;html=1;exitX=0.5;exitY=1;exitDx=0;exitDy=0;entryX=0.5;entryY=0;entryDx=0;entryDy=0;strokeColor=default;align=center;verticalAlign=middle;fontFamily=Helvetica;fontSize=11;fontColor=default;labelBackgroundColor=default;startFill=0;endArrow=none;" parent="1" source="YGld60m3BobG-WvfS-7C-51" target="YGld60m3BobG-WvfS-7C-52" edge="1">
          <mxGeometry relative="1" as="geometry" />
        </mxCell>
        <mxCell id="YGld60m3BobG-WvfS-7C-51" value="&lt;div&gt;&lt;font style=&quot;font-size: 12px;&quot; face=&quot;Lucida Console&quot;&gt;char c;&lt;/font&gt;&lt;/div&gt;&lt;div&gt;&lt;font style=&quot;font-size: 12px;&quot; face=&quot;Lucida Console&quot;&gt;int first = 1;&lt;/font&gt;&lt;/div&gt;&lt;div&gt;&lt;font style=&quot;font-size: 12px;&quot; face=&quot;Lucida Console&quot;&gt;CharNode *node = NULL, *prev = NULL;&lt;/font&gt;&lt;/div&gt;" style="rounded=0;whiteSpace=wrap;html=1;fontFamily=Helvetica;fontSize=11;fontColor=default;labelBackgroundColor=default;" parent="1" vertex="1">
          <mxGeometry x="1240" y="150" width="160" height="80" as="geometry" />
        </mxCell>
        <mxCell id="YGld60m3BobG-WvfS-7C-68" style="edgeStyle=orthogonalEdgeStyle;shape=connector;rounded=0;orthogonalLoop=1;jettySize=auto;html=1;exitX=0.5;exitY=1;exitDx=0;exitDy=0;entryX=0.5;entryY=0;entryDx=0;entryDy=0;strokeColor=default;align=center;verticalAlign=middle;fontFamily=Helvetica;fontSize=11;fontColor=default;labelBackgroundColor=default;startFill=0;endArrow=none;" parent="1" source="YGld60m3BobG-WvfS-7C-52" target="YGld60m3BobG-WvfS-7C-53" edge="1">
          <mxGeometry relative="1" as="geometry" />
        </mxCell>
        <mxCell id="YGld60m3BobG-WvfS-7C-52" value="&lt;font style=&quot;font-size: 15px;&quot; face=&quot;Lucida Console&quot;&gt;s-&amp;gt;head = NULL;&lt;br&gt;s-&amp;gt;tail = NULL;&lt;/font&gt;" style="rounded=0;whiteSpace=wrap;html=1;fontFamily=Helvetica;fontSize=11;fontColor=default;labelBackgroundColor=default;" parent="1" vertex="1">
          <mxGeometry x="1240" y="260" width="160" height="80" as="geometry" />
        </mxCell>
        <mxCell id="YGld60m3BobG-WvfS-7C-69" style="edgeStyle=orthogonalEdgeStyle;shape=connector;rounded=0;orthogonalLoop=1;jettySize=auto;html=1;exitX=0.5;exitY=1;exitDx=0;exitDy=0;entryX=0.5;entryY=0;entryDx=0;entryDy=0;strokeColor=default;align=center;verticalAlign=middle;fontFamily=Helvetica;fontSize=11;fontColor=default;labelBackgroundColor=default;startFill=0;endArrow=none;" parent="1" source="YGld60m3BobG-WvfS-7C-53" target="YGld60m3BobG-WvfS-7C-54" edge="1">
          <mxGeometry relative="1" as="geometry" />
        </mxCell>
        <mxCell id="YGld60m3BobG-WvfS-7C-80" style="edgeStyle=orthogonalEdgeStyle;shape=connector;rounded=0;orthogonalLoop=1;jettySize=auto;html=1;exitX=1;exitY=0.5;exitDx=0;exitDy=0;entryX=0;entryY=0.5;entryDx=0;entryDy=0;strokeColor=default;align=center;verticalAlign=middle;fontFamily=Helvetica;fontSize=11;fontColor=default;labelBackgroundColor=default;startFill=0;endArrow=none;" parent="1" source="YGld60m3BobG-WvfS-7C-53" target="YGld60m3BobG-WvfS-7C-62" edge="1">
          <mxGeometry relative="1" as="geometry" />
        </mxCell>
        <mxCell id="YGld60m3BobG-WvfS-7C-53" value="&lt;font face=&quot;Lucida Console&quot;&gt;(c = getchar())&lt;br&gt;&amp;nbsp;!= EOF&lt;/font&gt;" style="rhombus;whiteSpace=wrap;html=1;fontFamily=Helvetica;fontSize=11;fontColor=default;labelBackgroundColor=none;" parent="1" vertex="1">
          <mxGeometry x="1240" y="370" width="160" height="80" as="geometry" />
        </mxCell>
        <mxCell id="YGld60m3BobG-WvfS-7C-70" style="edgeStyle=orthogonalEdgeStyle;shape=connector;rounded=0;orthogonalLoop=1;jettySize=auto;html=1;exitX=0.5;exitY=1;exitDx=0;exitDy=0;entryX=0.5;entryY=0;entryDx=0;entryDy=0;strokeColor=default;align=center;verticalAlign=middle;fontFamily=Helvetica;fontSize=11;fontColor=default;labelBackgroundColor=default;startFill=0;endArrow=none;" parent="1" source="YGld60m3BobG-WvfS-7C-54" target="YGld60m3BobG-WvfS-7C-55" edge="1">
          <mxGeometry relative="1" as="geometry" />
        </mxCell>
        <mxCell id="YGld60m3BobG-WvfS-7C-176" style="edgeStyle=orthogonalEdgeStyle;shape=connector;rounded=0;orthogonalLoop=1;jettySize=auto;html=1;exitX=0;exitY=0.5;exitDx=0;exitDy=0;strokeColor=default;align=center;verticalAlign=middle;fontFamily=Lucida Console;fontSize=13;fontColor=default;labelBackgroundColor=none;startFill=0;endArrow=classic;endFill=1;" parent="1" source="YGld60m3BobG-WvfS-7C-54" edge="1">
          <mxGeometry relative="1" as="geometry">
            <mxPoint x="1230" y="519.8484848484849" as="targetPoint" />
          </mxGeometry>
        </mxCell>
        <mxCell id="YGld60m3BobG-WvfS-7C-54" value="&lt;font style=&quot;font-size: 16px;&quot; face=&quot;Lucida Console&quot;&gt;c == &#39;\n&#39;&lt;/font&gt;" style="rhombus;whiteSpace=wrap;html=1;fontFamily=Helvetica;fontSize=11;fontColor=default;labelBackgroundColor=default;" parent="1" vertex="1">
          <mxGeometry x="1240" y="480" width="160" height="80" as="geometry" />
        </mxCell>
        <mxCell id="YGld60m3BobG-WvfS-7C-71" style="edgeStyle=orthogonalEdgeStyle;shape=connector;rounded=0;orthogonalLoop=1;jettySize=auto;html=1;exitX=0.5;exitY=1;exitDx=0;exitDy=0;entryX=0.5;entryY=0;entryDx=0;entryDy=0;strokeColor=default;align=center;verticalAlign=middle;fontFamily=Helvetica;fontSize=11;fontColor=default;labelBackgroundColor=default;startFill=0;endArrow=none;" parent="1" source="YGld60m3BobG-WvfS-7C-55" target="YGld60m3BobG-WvfS-7C-56" edge="1">
          <mxGeometry relative="1" as="geometry" />
        </mxCell>
        <mxCell id="YGld60m3BobG-WvfS-7C-55" value="&lt;font style=&quot;font-size: 13px;&quot; face=&quot;Lucida Console&quot;&gt;node = (CharNode *)malloc(&lt;br&gt;sizeof(CharNode));&lt;/font&gt;" style="rounded=0;whiteSpace=wrap;html=1;fontFamily=Helvetica;fontSize=11;fontColor=default;labelBackgroundColor=default;" parent="1" vertex="1">
          <mxGeometry x="1240" y="590" width="160" height="80" as="geometry" />
        </mxCell>
        <mxCell id="YGld60m3BobG-WvfS-7C-72" style="edgeStyle=orthogonalEdgeStyle;shape=connector;rounded=0;orthogonalLoop=1;jettySize=auto;html=1;exitX=1;exitY=0.5;exitDx=0;exitDy=0;entryX=0;entryY=0.5;entryDx=0;entryDy=0;strokeColor=default;align=center;verticalAlign=middle;fontFamily=Helvetica;fontSize=11;fontColor=default;labelBackgroundColor=default;startFill=0;endArrow=none;" parent="1" source="YGld60m3BobG-WvfS-7C-56" target="YGld60m3BobG-WvfS-7C-57" edge="1">
          <mxGeometry relative="1" as="geometry" />
        </mxCell>
        <mxCell id="YGld60m3BobG-WvfS-7C-73" style="edgeStyle=orthogonalEdgeStyle;shape=connector;rounded=0;orthogonalLoop=1;jettySize=auto;html=1;exitX=0.5;exitY=1;exitDx=0;exitDy=0;entryX=0.5;entryY=0;entryDx=0;entryDy=0;strokeColor=default;align=center;verticalAlign=middle;fontFamily=Helvetica;fontSize=11;fontColor=default;labelBackgroundColor=default;startFill=0;endArrow=none;" parent="1" source="YGld60m3BobG-WvfS-7C-56" target="YGld60m3BobG-WvfS-7C-58" edge="1">
          <mxGeometry relative="1" as="geometry" />
        </mxCell>
        <mxCell id="YGld60m3BobG-WvfS-7C-56" value="&lt;font style=&quot;font-size: 18px;&quot; face=&quot;Lucida Console&quot;&gt;first&lt;/font&gt;" style="rhombus;whiteSpace=wrap;html=1;fontFamily=Helvetica;fontSize=11;fontColor=default;labelBackgroundColor=default;" parent="1" vertex="1">
          <mxGeometry x="1240" y="700" width="160" height="80" as="geometry" />
        </mxCell>
        <mxCell id="YGld60m3BobG-WvfS-7C-74" style="edgeStyle=orthogonalEdgeStyle;shape=connector;rounded=0;orthogonalLoop=1;jettySize=auto;html=1;exitX=0.5;exitY=1;exitDx=0;exitDy=0;entryX=1;entryY=0.5;entryDx=0;entryDy=0;strokeColor=default;align=center;verticalAlign=middle;fontFamily=Helvetica;fontSize=11;fontColor=default;labelBackgroundColor=default;startFill=0;endArrow=classic;endFill=1;" parent="1" source="YGld60m3BobG-WvfS-7C-57" target="YGld60m3BobG-WvfS-7C-58" edge="1">
          <mxGeometry relative="1" as="geometry" />
        </mxCell>
        <mxCell id="YGld60m3BobG-WvfS-7C-57" value="&lt;font style=&quot;font-size: 13px;&quot; face=&quot;Lucida Console&quot;&gt;s-&amp;gt;head = node;&lt;br&gt;first = 0;&lt;/font&gt;" style="rounded=0;whiteSpace=wrap;html=1;fontFamily=Helvetica;fontSize=11;fontColor=default;labelBackgroundColor=default;" parent="1" vertex="1">
          <mxGeometry x="1440" y="700" width="160" height="80" as="geometry" />
        </mxCell>
        <mxCell id="YGld60m3BobG-WvfS-7C-75" style="edgeStyle=orthogonalEdgeStyle;shape=connector;rounded=0;orthogonalLoop=1;jettySize=auto;html=1;exitX=0.5;exitY=1;exitDx=0;exitDy=0;entryX=0.5;entryY=0;entryDx=0;entryDy=0;strokeColor=default;align=center;verticalAlign=middle;fontFamily=Helvetica;fontSize=11;fontColor=default;labelBackgroundColor=default;startFill=0;endArrow=none;" parent="1" source="YGld60m3BobG-WvfS-7C-58" target="YGld60m3BobG-WvfS-7C-59" edge="1">
          <mxGeometry relative="1" as="geometry" />
        </mxCell>
        <mxCell id="YGld60m3BobG-WvfS-7C-58" value="&lt;font style=&quot;font-size: 14px;&quot; face=&quot;Lucida Console&quot;&gt;node-&amp;gt;c = c;&lt;br&gt;node-&amp;gt;next = NULL;&lt;br&gt;node-&amp;gt;prev = prev;&lt;/font&gt;" style="rounded=0;whiteSpace=wrap;html=1;fontFamily=Helvetica;fontSize=11;fontColor=default;labelBackgroundColor=default;" parent="1" vertex="1">
          <mxGeometry x="1240" y="810" width="160" height="80" as="geometry" />
        </mxCell>
        <mxCell id="YGld60m3BobG-WvfS-7C-76" style="edgeStyle=orthogonalEdgeStyle;shape=connector;rounded=0;orthogonalLoop=1;jettySize=auto;html=1;exitX=1;exitY=0.5;exitDx=0;exitDy=0;entryX=0;entryY=0.5;entryDx=0;entryDy=0;strokeColor=default;align=center;verticalAlign=middle;fontFamily=Helvetica;fontSize=11;fontColor=default;labelBackgroundColor=default;startFill=0;endArrow=none;" parent="1" source="YGld60m3BobG-WvfS-7C-59" target="YGld60m3BobG-WvfS-7C-60" edge="1">
          <mxGeometry relative="1" as="geometry" />
        </mxCell>
        <mxCell id="YGld60m3BobG-WvfS-7C-78" style="edgeStyle=orthogonalEdgeStyle;shape=connector;rounded=0;orthogonalLoop=1;jettySize=auto;html=1;exitX=0.5;exitY=1;exitDx=0;exitDy=0;entryX=0.5;entryY=0;entryDx=0;entryDy=0;strokeColor=default;align=center;verticalAlign=middle;fontFamily=Helvetica;fontSize=11;fontColor=default;labelBackgroundColor=default;startFill=0;endArrow=none;" parent="1" source="YGld60m3BobG-WvfS-7C-59" target="YGld60m3BobG-WvfS-7C-61" edge="1">
          <mxGeometry relative="1" as="geometry" />
        </mxCell>
        <mxCell id="YGld60m3BobG-WvfS-7C-59" value="&lt;font style=&quot;font-size: 18px;&quot; face=&quot;Lucida Console&quot;&gt;prev&lt;/font&gt;" style="rhombus;whiteSpace=wrap;html=1;fontFamily=Helvetica;fontSize=11;fontColor=default;labelBackgroundColor=default;" parent="1" vertex="1">
          <mxGeometry x="1240" y="920" width="160" height="80" as="geometry" />
        </mxCell>
        <mxCell id="YGld60m3BobG-WvfS-7C-77" style="edgeStyle=orthogonalEdgeStyle;shape=connector;rounded=0;orthogonalLoop=1;jettySize=auto;html=1;exitX=0.5;exitY=1;exitDx=0;exitDy=0;entryX=1;entryY=0.5;entryDx=0;entryDy=0;strokeColor=default;align=center;verticalAlign=middle;fontFamily=Helvetica;fontSize=11;fontColor=default;labelBackgroundColor=default;startFill=0;endArrow=classic;endFill=1;" parent="1" source="YGld60m3BobG-WvfS-7C-60" target="YGld60m3BobG-WvfS-7C-61" edge="1">
          <mxGeometry relative="1" as="geometry" />
        </mxCell>
        <mxCell id="YGld60m3BobG-WvfS-7C-60" value="&lt;font style=&quot;font-size: 14px;&quot; face=&quot;Lucida Console&quot;&gt;prev-&amp;gt;next = node;&lt;/font&gt;" style="rounded=0;whiteSpace=wrap;html=1;fontFamily=Helvetica;fontSize=11;fontColor=default;labelBackgroundColor=default;" parent="1" vertex="1">
          <mxGeometry x="1440" y="920" width="160" height="80" as="geometry" />
        </mxCell>
        <mxCell id="YGld60m3BobG-WvfS-7C-79" style="edgeStyle=orthogonalEdgeStyle;shape=connector;rounded=0;orthogonalLoop=1;jettySize=auto;html=1;exitX=0;exitY=0.5;exitDx=0;exitDy=0;entryX=0;entryY=0.5;entryDx=0;entryDy=0;strokeColor=default;align=center;verticalAlign=middle;fontFamily=Helvetica;fontSize=11;fontColor=default;labelBackgroundColor=default;startFill=0;endArrow=classic;endFill=1;" parent="1" source="YGld60m3BobG-WvfS-7C-61" target="YGld60m3BobG-WvfS-7C-53" edge="1">
          <mxGeometry relative="1" as="geometry">
            <Array as="points">
              <mxPoint x="1230" y="1070" />
              <mxPoint x="1230" y="410" />
            </Array>
          </mxGeometry>
        </mxCell>
        <mxCell id="YGld60m3BobG-WvfS-7C-61" value="&lt;font style=&quot;font-size: 18px;&quot; face=&quot;Lucida Console&quot;&gt;prev = node;&lt;/font&gt;" style="rounded=0;whiteSpace=wrap;html=1;fontFamily=Helvetica;fontSize=11;fontColor=default;labelBackgroundColor=default;" parent="1" vertex="1">
          <mxGeometry x="1240" y="1030" width="160" height="80" as="geometry" />
        </mxCell>
        <mxCell id="YGld60m3BobG-WvfS-7C-81" style="edgeStyle=orthogonalEdgeStyle;shape=connector;rounded=0;orthogonalLoop=1;jettySize=auto;html=1;exitX=1;exitY=0.5;exitDx=0;exitDy=0;entryX=0;entryY=0.5;entryDx=0;entryDy=0;strokeColor=default;align=center;verticalAlign=middle;fontFamily=Helvetica;fontSize=11;fontColor=default;labelBackgroundColor=default;startFill=0;endArrow=none;" parent="1" source="YGld60m3BobG-WvfS-7C-62" target="YGld60m3BobG-WvfS-7C-63" edge="1">
          <mxGeometry relative="1" as="geometry" />
        </mxCell>
        <mxCell id="YGld60m3BobG-WvfS-7C-62" value="&lt;font style=&quot;font-size: 15px;&quot; face=&quot;Lucida Console&quot;&gt;s-&amp;gt;tail = node;&lt;/font&gt;" style="rounded=0;whiteSpace=wrap;html=1;fontFamily=Helvetica;fontSize=11;fontColor=default;labelBackgroundColor=default;" parent="1" vertex="1">
          <mxGeometry x="1440" y="370" width="160" height="80" as="geometry" />
        </mxCell>
        <mxCell id="YGld60m3BobG-WvfS-7C-82" style="edgeStyle=orthogonalEdgeStyle;shape=connector;rounded=0;orthogonalLoop=1;jettySize=auto;html=1;exitX=1;exitY=0.5;exitDx=0;exitDy=0;entryX=0;entryY=0.5;entryDx=0;entryDy=0;strokeColor=default;align=center;verticalAlign=middle;fontFamily=Helvetica;fontSize=11;fontColor=default;labelBackgroundColor=default;startFill=0;endArrow=none;" parent="1" source="YGld60m3BobG-WvfS-7C-63" target="YGld60m3BobG-WvfS-7C-65" edge="1">
          <mxGeometry relative="1" as="geometry" />
        </mxCell>
        <mxCell id="YGld60m3BobG-WvfS-7C-83" style="edgeStyle=orthogonalEdgeStyle;shape=connector;rounded=0;orthogonalLoop=1;jettySize=auto;html=1;exitX=0.5;exitY=1;exitDx=0;exitDy=0;entryX=0.5;entryY=0;entryDx=0;entryDy=0;strokeColor=default;align=center;verticalAlign=middle;fontFamily=Helvetica;fontSize=11;fontColor=default;labelBackgroundColor=default;startFill=0;endArrow=none;" parent="1" source="YGld60m3BobG-WvfS-7C-63" target="YGld60m3BobG-WvfS-7C-64" edge="1">
          <mxGeometry relative="1" as="geometry" />
        </mxCell>
        <mxCell id="YGld60m3BobG-WvfS-7C-63" value="&lt;font style=&quot;font-size: 18px;&quot; face=&quot;Lucida Console&quot;&gt;c == EOF&lt;/font&gt;" style="rhombus;whiteSpace=wrap;html=1;fontFamily=Helvetica;fontSize=11;fontColor=default;labelBackgroundColor=default;" parent="1" vertex="1">
          <mxGeometry x="1640" y="370" width="160" height="80" as="geometry" />
        </mxCell>
        <mxCell id="YGld60m3BobG-WvfS-7C-64" value="&lt;font style=&quot;font-size: 16px;&quot; face=&quot;Lucida Console&quot;&gt;return EOF_ERR;&lt;/font&gt;" style="rounded=1;whiteSpace=wrap;html=1;fontFamily=Helvetica;fontSize=11;fontColor=default;labelBackgroundColor=default;arcSize=50;" parent="1" vertex="1">
          <mxGeometry x="1640" y="480" width="160" height="80" as="geometry" />
        </mxCell>
        <mxCell id="YGld60m3BobG-WvfS-7C-65" value="&lt;font style=&quot;font-size: 18px;&quot; face=&quot;Lucida Console&quot;&gt;return OK;&lt;/font&gt;" style="rounded=1;whiteSpace=wrap;html=1;fontFamily=Helvetica;fontSize=11;fontColor=default;labelBackgroundColor=default;arcSize=50;" parent="1" vertex="1">
          <mxGeometry x="1840" y="370" width="160" height="80" as="geometry" />
        </mxCell>
        <mxCell id="YGld60m3BobG-WvfS-7C-94" style="edgeStyle=orthogonalEdgeStyle;shape=connector;rounded=0;orthogonalLoop=1;jettySize=auto;html=1;exitX=0.5;exitY=1;exitDx=0;exitDy=0;entryX=0.5;entryY=0;entryDx=0;entryDy=0;strokeColor=default;align=center;verticalAlign=middle;fontFamily=Lucida Console;fontSize=13;fontColor=default;labelBackgroundColor=none;startFill=0;endArrow=none;" parent="1" source="YGld60m3BobG-WvfS-7C-84" target="YGld60m3BobG-WvfS-7C-85" edge="1">
          <mxGeometry relative="1" as="geometry" />
        </mxCell>
        <mxCell id="YGld60m3BobG-WvfS-7C-84" value="&lt;font face=&quot;Lucida Console&quot; style=&quot;font-size: 12px;&quot;&gt;Начало char get_key_char(String s)&lt;/font&gt;" style="rounded=1;whiteSpace=wrap;html=1;fontFamily=Helvetica;fontSize=11;fontColor=default;labelBackgroundColor=none;arcSize=50;" parent="1" vertex="1">
          <mxGeometry x="40" y="1140" width="160" height="80" as="geometry" />
        </mxCell>
        <mxCell id="YGld60m3BobG-WvfS-7C-95" style="edgeStyle=orthogonalEdgeStyle;shape=connector;rounded=0;orthogonalLoop=1;jettySize=auto;html=1;exitX=0.5;exitY=1;exitDx=0;exitDy=0;entryX=0.5;entryY=0;entryDx=0;entryDy=0;strokeColor=default;align=center;verticalAlign=middle;fontFamily=Lucida Console;fontSize=13;fontColor=default;labelBackgroundColor=none;startFill=0;endArrow=none;" parent="1" source="YGld60m3BobG-WvfS-7C-85" target="YGld60m3BobG-WvfS-7C-86" edge="1">
          <mxGeometry relative="1" as="geometry" />
        </mxCell>
        <mxCell id="YGld60m3BobG-WvfS-7C-85" value="&lt;font style=&quot;font-size: 14px;&quot; face=&quot;Lucida Console&quot;&gt;int blank = 1;&lt;br&gt;char c = 0;&lt;br&gt;CharNode *next;&lt;/font&gt;" style="rounded=0;whiteSpace=wrap;html=1;fontFamily=Helvetica;fontSize=11;fontColor=default;labelBackgroundColor=default;" parent="1" vertex="1">
          <mxGeometry x="40" y="1250" width="160" height="80" as="geometry" />
        </mxCell>
        <mxCell id="YGld60m3BobG-WvfS-7C-96" style="edgeStyle=orthogonalEdgeStyle;shape=connector;rounded=0;orthogonalLoop=1;jettySize=auto;html=1;exitX=0.5;exitY=1;exitDx=0;exitDy=0;entryX=0.5;entryY=0;entryDx=0;entryDy=0;strokeColor=default;align=center;verticalAlign=middle;fontFamily=Lucida Console;fontSize=13;fontColor=default;labelBackgroundColor=none;startFill=0;endArrow=none;" parent="1" source="YGld60m3BobG-WvfS-7C-86" target="YGld60m3BobG-WvfS-7C-87" edge="1">
          <mxGeometry relative="1" as="geometry" />
        </mxCell>
        <mxCell id="YGld60m3BobG-WvfS-7C-105" style="edgeStyle=orthogonalEdgeStyle;shape=connector;rounded=0;orthogonalLoop=1;jettySize=auto;html=1;exitX=1;exitY=0.5;exitDx=0;exitDy=0;entryX=0;entryY=0.5;entryDx=0;entryDy=0;strokeColor=default;align=center;verticalAlign=middle;fontFamily=Lucida Console;fontSize=13;fontColor=default;labelBackgroundColor=none;startFill=0;endArrow=none;" parent="1" source="YGld60m3BobG-WvfS-7C-86" target="YGld60m3BobG-WvfS-7C-93" edge="1">
          <mxGeometry relative="1" as="geometry" />
        </mxCell>
        <mxCell id="YGld60m3BobG-WvfS-7C-86" value="&lt;font&gt;CharNode *ptr = &lt;br&gt;s.head;&lt;br&gt;ptr != NULL;&lt;br&gt;ptr = next&lt;/font&gt;" style="shape=hexagon;perimeter=hexagonPerimeter2;whiteSpace=wrap;html=1;fixedSize=1;fontFamily=Lucida Console;fontSize=11;fontColor=default;labelBackgroundColor=default;" parent="1" vertex="1">
          <mxGeometry x="40" y="1360" width="160" height="80" as="geometry" />
        </mxCell>
        <mxCell id="YGld60m3BobG-WvfS-7C-97" style="edgeStyle=orthogonalEdgeStyle;shape=connector;rounded=0;orthogonalLoop=1;jettySize=auto;html=1;exitX=0.5;exitY=1;exitDx=0;exitDy=0;entryX=0.5;entryY=0;entryDx=0;entryDy=0;strokeColor=default;align=center;verticalAlign=middle;fontFamily=Lucida Console;fontSize=13;fontColor=default;labelBackgroundColor=none;startFill=0;endArrow=none;" parent="1" source="YGld60m3BobG-WvfS-7C-87" target="YGld60m3BobG-WvfS-7C-88" edge="1">
          <mxGeometry relative="1" as="geometry" />
        </mxCell>
        <mxCell id="YGld60m3BobG-WvfS-7C-87" value="&lt;font style=&quot;font-size: 15px;&quot; face=&quot;Lucida Console&quot;&gt;next = ptr-&amp;gt;next;&lt;/font&gt;" style="rounded=0;whiteSpace=wrap;html=1;fontFamily=Lucida Console;fontSize=11;fontColor=default;labelBackgroundColor=default;" parent="1" vertex="1">
          <mxGeometry x="40" y="1470" width="160" height="80" as="geometry" />
        </mxCell>
        <mxCell id="YGld60m3BobG-WvfS-7C-98" style="edgeStyle=orthogonalEdgeStyle;shape=connector;rounded=0;orthogonalLoop=1;jettySize=auto;html=1;exitX=1;exitY=0.5;exitDx=0;exitDy=0;entryX=0;entryY=0.5;entryDx=0;entryDy=0;strokeColor=default;align=center;verticalAlign=middle;fontFamily=Lucida Console;fontSize=13;fontColor=default;labelBackgroundColor=none;startFill=0;endArrow=none;" parent="1" source="YGld60m3BobG-WvfS-7C-88" target="YGld60m3BobG-WvfS-7C-89" edge="1">
          <mxGeometry relative="1" as="geometry" />
        </mxCell>
        <mxCell id="YGld60m3BobG-WvfS-7C-99" style="edgeStyle=orthogonalEdgeStyle;shape=connector;rounded=0;orthogonalLoop=1;jettySize=auto;html=1;exitX=0.5;exitY=1;exitDx=0;exitDy=0;entryX=0.5;entryY=0;entryDx=0;entryDy=0;strokeColor=default;align=center;verticalAlign=middle;fontFamily=Lucida Console;fontSize=13;fontColor=default;labelBackgroundColor=none;startFill=0;endArrow=none;" parent="1" source="YGld60m3BobG-WvfS-7C-88" target="YGld60m3BobG-WvfS-7C-90" edge="1">
          <mxGeometry relative="1" as="geometry" />
        </mxCell>
        <mxCell id="YGld60m3BobG-WvfS-7C-88" value="!isblank(ptr-&amp;gt;c) &lt;br&gt;&amp;amp;&amp;amp; blank" style="rhombus;whiteSpace=wrap;html=1;rounded=0;strokeColor=default;align=center;verticalAlign=middle;fontFamily=Lucida Console;fontSize=11;fontColor=default;labelBackgroundColor=none;fillColor=default;" parent="1" vertex="1">
          <mxGeometry x="40" y="1580" width="160" height="80" as="geometry" />
        </mxCell>
        <mxCell id="YGld60m3BobG-WvfS-7C-101" style="edgeStyle=orthogonalEdgeStyle;shape=connector;rounded=0;orthogonalLoop=1;jettySize=auto;html=1;exitX=1;exitY=0.5;exitDx=0;exitDy=0;entryX=0;entryY=0.5;entryDx=0;entryDy=0;strokeColor=default;align=center;verticalAlign=middle;fontFamily=Lucida Console;fontSize=13;fontColor=default;labelBackgroundColor=none;startFill=0;endArrow=none;" parent="1" source="YGld60m3BobG-WvfS-7C-89" target="YGld60m3BobG-WvfS-7C-92" edge="1">
          <mxGeometry relative="1" as="geometry" />
        </mxCell>
        <mxCell id="YGld60m3BobG-WvfS-7C-89" value="&lt;font face=&quot;Lucida Console&quot;&gt;c = ptr-&amp;gt;c;&lt;br&gt;blank = 0;&lt;/font&gt;" style="rounded=0;whiteSpace=wrap;html=1;strokeColor=default;align=center;verticalAlign=middle;fontFamily=Lucida Console;fontSize=13;fontColor=default;labelBackgroundColor=none;fillColor=default;" parent="1" vertex="1">
          <mxGeometry x="240" y="1580" width="160" height="80" as="geometry" />
        </mxCell>
        <mxCell id="YGld60m3BobG-WvfS-7C-100" style="edgeStyle=orthogonalEdgeStyle;shape=connector;rounded=0;orthogonalLoop=1;jettySize=auto;html=1;exitX=1;exitY=0.5;exitDx=0;exitDy=0;entryX=0;entryY=0.5;entryDx=0;entryDy=0;strokeColor=default;align=center;verticalAlign=middle;fontFamily=Lucida Console;fontSize=13;fontColor=default;labelBackgroundColor=none;startFill=0;endArrow=none;" parent="1" source="YGld60m3BobG-WvfS-7C-90" target="YGld60m3BobG-WvfS-7C-91" edge="1">
          <mxGeometry relative="1" as="geometry" />
        </mxCell>
        <mxCell id="YGld60m3BobG-WvfS-7C-201" style="edgeStyle=orthogonalEdgeStyle;shape=connector;rounded=0;orthogonalLoop=1;jettySize=auto;html=1;exitX=0.5;exitY=1;exitDx=0;exitDy=0;strokeColor=default;align=center;verticalAlign=middle;fontFamily=Lucida Console;fontSize=13;fontColor=default;labelBackgroundColor=none;startFill=0;endArrow=classic;endFill=1;" parent="1" source="YGld60m3BobG-WvfS-7C-90" edge="1">
          <mxGeometry relative="1" as="geometry">
            <mxPoint x="430" y="1730" as="targetPoint" />
            <Array as="points">
              <mxPoint x="120" y="1780" />
              <mxPoint x="430" y="1780" />
            </Array>
          </mxGeometry>
        </mxCell>
        <mxCell id="YGld60m3BobG-WvfS-7C-90" value="&lt;font style=&quot;font-size: 11px;&quot;&gt;isblank(ptr-&amp;gt;c) &lt;br&gt;&amp;amp;&amp;amp; !blank&lt;/font&gt;" style="rhombus;whiteSpace=wrap;html=1;rounded=0;strokeColor=default;align=center;verticalAlign=middle;fontFamily=Lucida Console;fontSize=13;fontColor=default;labelBackgroundColor=none;fillColor=default;" parent="1" vertex="1">
          <mxGeometry x="40" y="1690" width="160" height="80" as="geometry" />
        </mxCell>
        <mxCell id="YGld60m3BobG-WvfS-7C-102" style="edgeStyle=orthogonalEdgeStyle;shape=connector;rounded=0;orthogonalLoop=1;jettySize=auto;html=1;exitX=1;exitY=0.5;exitDx=0;exitDy=0;strokeColor=default;align=center;verticalAlign=middle;fontFamily=Lucida Console;fontSize=13;fontColor=default;labelBackgroundColor=none;startFill=0;endArrow=classic;endFill=1;" parent="1" source="YGld60m3BobG-WvfS-7C-91" edge="1">
          <mxGeometry relative="1" as="geometry">
            <mxPoint x="430" y="1620.0000000000005" as="targetPoint" />
          </mxGeometry>
        </mxCell>
        <mxCell id="YGld60m3BobG-WvfS-7C-91" value="&lt;font style=&quot;font-size: 18px;&quot;&gt;blank = 1;&lt;/font&gt;" style="rounded=0;whiteSpace=wrap;html=1;strokeColor=default;align=center;verticalAlign=middle;fontFamily=Lucida Console;fontSize=13;fontColor=default;labelBackgroundColor=none;fillColor=default;" parent="1" vertex="1">
          <mxGeometry x="240" y="1690" width="160" height="80" as="geometry" />
        </mxCell>
        <mxCell id="YGld60m3BobG-WvfS-7C-103" style="edgeStyle=orthogonalEdgeStyle;shape=connector;rounded=0;orthogonalLoop=1;jettySize=auto;html=1;exitX=0.5;exitY=1;exitDx=0;exitDy=0;entryX=0;entryY=0.5;entryDx=0;entryDy=0;strokeColor=default;align=center;verticalAlign=middle;fontFamily=Lucida Console;fontSize=13;fontColor=default;labelBackgroundColor=none;startFill=0;endArrow=classic;endFill=1;" parent="1" source="YGld60m3BobG-WvfS-7C-92" target="YGld60m3BobG-WvfS-7C-86" edge="1">
          <mxGeometry relative="1" as="geometry">
            <Array as="points">
              <mxPoint x="520" y="1790" />
              <mxPoint x="30" y="1790" />
              <mxPoint x="30" y="1400" />
            </Array>
          </mxGeometry>
        </mxCell>
        <mxCell id="YGld60m3BobG-WvfS-7C-104" style="edgeStyle=orthogonalEdgeStyle;shape=connector;rounded=0;orthogonalLoop=1;jettySize=auto;html=1;exitX=1;exitY=0.5;exitDx=0;exitDy=0;entryX=0.5;entryY=1;entryDx=0;entryDy=0;strokeColor=default;align=center;verticalAlign=middle;fontFamily=Lucida Console;fontSize=13;fontColor=default;labelBackgroundColor=none;startFill=0;endArrow=classic;endFill=1;" parent="1" source="YGld60m3BobG-WvfS-7C-92" target="YGld60m3BobG-WvfS-7C-93" edge="1">
          <mxGeometry relative="1" as="geometry">
            <Array as="points">
              <mxPoint x="610" y="1620" />
              <mxPoint x="610" y="1510" />
              <mxPoint x="320" y="1510" />
            </Array>
          </mxGeometry>
        </mxCell>
        <mxCell id="YGld60m3BobG-WvfS-7C-92" value="ptr == s.tail" style="rhombus;whiteSpace=wrap;html=1;rounded=0;strokeColor=default;align=center;verticalAlign=middle;fontFamily=Lucida Console;fontSize=13;fontColor=default;labelBackgroundColor=none;fillColor=default;" parent="1" vertex="1">
          <mxGeometry x="440" y="1580" width="160" height="80" as="geometry" />
        </mxCell>
        <mxCell id="YGld60m3BobG-WvfS-7C-93" value="&lt;font style=&quot;font-size: 18px;&quot;&gt;return c;&lt;/font&gt;" style="rounded=1;whiteSpace=wrap;html=1;strokeColor=default;align=center;verticalAlign=middle;fontFamily=Lucida Console;fontSize=13;fontColor=default;labelBackgroundColor=none;fillColor=default;arcSize=50;" parent="1" vertex="1">
          <mxGeometry x="240" y="1360" width="160" height="80" as="geometry" />
        </mxCell>
        <mxCell id="YGld60m3BobG-WvfS-7C-126" style="edgeStyle=orthogonalEdgeStyle;shape=connector;rounded=0;orthogonalLoop=1;jettySize=auto;html=1;exitX=0.5;exitY=1;exitDx=0;exitDy=0;entryX=0.5;entryY=0;entryDx=0;entryDy=0;strokeColor=default;align=center;verticalAlign=middle;fontFamily=Lucida Console;fontSize=13;fontColor=default;labelBackgroundColor=none;startFill=0;endArrow=none;" parent="1" source="YGld60m3BobG-WvfS-7C-106" target="YGld60m3BobG-WvfS-7C-107" edge="1">
          <mxGeometry relative="1" as="geometry" />
        </mxCell>
        <mxCell id="YGld60m3BobG-WvfS-7C-106" value="Начало void clear_spaces(String *s)" style="rounded=1;whiteSpace=wrap;html=1;strokeColor=default;align=center;verticalAlign=middle;fontFamily=Lucida Console;fontSize=13;fontColor=default;labelBackgroundColor=none;fillColor=default;arcSize=50;" parent="1" vertex="1">
          <mxGeometry x="2040" y="40" width="160" height="80" as="geometry" />
        </mxCell>
        <mxCell id="YGld60m3BobG-WvfS-7C-127" style="edgeStyle=orthogonalEdgeStyle;shape=connector;rounded=0;orthogonalLoop=1;jettySize=auto;html=1;exitX=0.5;exitY=1;exitDx=0;exitDy=0;entryX=0.5;entryY=0;entryDx=0;entryDy=0;strokeColor=default;align=center;verticalAlign=middle;fontFamily=Lucida Console;fontSize=13;fontColor=default;labelBackgroundColor=none;startFill=0;endArrow=none;" parent="1" source="YGld60m3BobG-WvfS-7C-107" target="YGld60m3BobG-WvfS-7C-108" edge="1">
          <mxGeometry relative="1" as="geometry" />
        </mxCell>
        <mxCell id="YGld60m3BobG-WvfS-7C-107" value="CharNode *ptr, *next, *prev = NULL, *last_non_blank;&lt;br&gt;int blank = 0;" style="rounded=0;whiteSpace=wrap;html=1;strokeColor=default;align=center;verticalAlign=middle;fontFamily=Lucida Console;fontSize=13;fontColor=default;labelBackgroundColor=none;fillColor=default;" parent="1" vertex="1">
          <mxGeometry x="2040" y="150" width="160" height="80" as="geometry" />
        </mxCell>
        <mxCell id="YGld60m3BobG-WvfS-7C-128" style="edgeStyle=orthogonalEdgeStyle;shape=connector;rounded=0;orthogonalLoop=1;jettySize=auto;html=1;exitX=0.5;exitY=1;exitDx=0;exitDy=0;entryX=0.5;entryY=0;entryDx=0;entryDy=0;strokeColor=default;align=center;verticalAlign=middle;fontFamily=Lucida Console;fontSize=13;fontColor=default;labelBackgroundColor=none;startFill=0;endArrow=none;" parent="1" source="YGld60m3BobG-WvfS-7C-108" target="YGld60m3BobG-WvfS-7C-110" edge="1">
          <mxGeometry relative="1" as="geometry" />
        </mxCell>
        <mxCell id="YGld60m3BobG-WvfS-7C-133" style="edgeStyle=orthogonalEdgeStyle;shape=connector;rounded=0;orthogonalLoop=1;jettySize=auto;html=1;exitX=1;exitY=0.5;exitDx=0;exitDy=0;entryX=0;entryY=0.5;entryDx=0;entryDy=0;strokeColor=default;align=center;verticalAlign=middle;fontFamily=Lucida Console;fontSize=13;fontColor=default;labelBackgroundColor=none;startFill=0;endArrow=none;" parent="1" source="YGld60m3BobG-WvfS-7C-108" target="YGld60m3BobG-WvfS-7C-109" edge="1">
          <mxGeometry relative="1" as="geometry" />
        </mxCell>
        <mxCell id="YGld60m3BobG-WvfS-7C-108" value="s-&amp;gt;head == NULL" style="rhombus;whiteSpace=wrap;html=1;rounded=0;strokeColor=default;align=center;verticalAlign=middle;fontFamily=Lucida Console;fontSize=13;fontColor=default;labelBackgroundColor=none;fillColor=default;" parent="1" vertex="1">
          <mxGeometry x="2040" y="260" width="160" height="80" as="geometry" />
        </mxCell>
        <mxCell id="YGld60m3BobG-WvfS-7C-109" value="&lt;font style=&quot;font-size: 18px;&quot;&gt;Конец&lt;/font&gt;" style="rounded=1;whiteSpace=wrap;html=1;strokeColor=default;align=center;verticalAlign=middle;fontFamily=Lucida Console;fontSize=13;fontColor=default;labelBackgroundColor=none;fillColor=default;arcSize=50;" parent="1" vertex="1">
          <mxGeometry x="2240" y="260" width="160" height="80" as="geometry" />
        </mxCell>
        <mxCell id="YGld60m3BobG-WvfS-7C-130" style="edgeStyle=orthogonalEdgeStyle;shape=connector;rounded=0;orthogonalLoop=1;jettySize=auto;html=1;exitX=0.5;exitY=1;exitDx=0;exitDy=0;entryX=0.5;entryY=0;entryDx=0;entryDy=0;strokeColor=default;align=center;verticalAlign=middle;fontFamily=Lucida Console;fontSize=13;fontColor=default;labelBackgroundColor=none;startFill=0;endArrow=none;" parent="1" source="YGld60m3BobG-WvfS-7C-110" target="YGld60m3BobG-WvfS-7C-111" edge="1">
          <mxGeometry relative="1" as="geometry" />
        </mxCell>
        <mxCell id="YGld60m3BobG-WvfS-7C-134" style="edgeStyle=orthogonalEdgeStyle;shape=connector;rounded=0;orthogonalLoop=1;jettySize=auto;html=1;exitX=1;exitY=0.5;exitDx=0;exitDy=0;entryX=0;entryY=0.5;entryDx=0;entryDy=0;strokeColor=default;align=center;verticalAlign=middle;fontFamily=Lucida Console;fontSize=13;fontColor=default;labelBackgroundColor=none;startFill=0;endArrow=none;" parent="1" source="YGld60m3BobG-WvfS-7C-110" target="YGld60m3BobG-WvfS-7C-114" edge="1">
          <mxGeometry relative="1" as="geometry" />
        </mxCell>
        <mxCell id="YGld60m3BobG-WvfS-7C-110" value="&lt;font style=&quot;font-size: 9px; line-height: 70%;&quot;&gt;isblank(s-&amp;gt;head-&amp;gt;c) &amp;amp;&amp;amp;&lt;br&gt;&amp;nbsp;(s-&amp;gt;head != s-&amp;gt;tail)&lt;/font&gt;" style="rhombus;whiteSpace=wrap;html=1;rounded=0;strokeColor=default;align=center;verticalAlign=middle;fontFamily=Lucida Console;fontSize=13;fontColor=default;labelBackgroundColor=none;fillColor=default;" parent="1" vertex="1">
          <mxGeometry x="2040" y="370" width="160" height="80" as="geometry" />
        </mxCell>
        <mxCell id="YGld60m3BobG-WvfS-7C-131" style="edgeStyle=orthogonalEdgeStyle;shape=connector;rounded=0;orthogonalLoop=1;jettySize=auto;html=1;exitX=0.5;exitY=1;exitDx=0;exitDy=0;entryX=0.5;entryY=0;entryDx=0;entryDy=0;strokeColor=default;align=center;verticalAlign=middle;fontFamily=Lucida Console;fontSize=13;fontColor=default;labelBackgroundColor=none;startFill=0;endArrow=none;" parent="1" source="YGld60m3BobG-WvfS-7C-111" target="YGld60m3BobG-WvfS-7C-113" edge="1">
          <mxGeometry relative="1" as="geometry" />
        </mxCell>
        <mxCell id="YGld60m3BobG-WvfS-7C-111" value="&lt;div&gt;ptr = s-&amp;gt;head;&lt;/div&gt;&lt;div&gt;&lt;span style=&quot;background-color: transparent; color: light-dark(rgb(0, 0, 0), rgb(255, 255, 255));&quot;&gt;ptr-&amp;gt;next-&amp;gt;prev = NULL;&lt;/span&gt;&lt;/div&gt;" style="rounded=0;whiteSpace=wrap;html=1;strokeColor=default;align=center;verticalAlign=middle;fontFamily=Lucida Console;fontSize=13;fontColor=default;labelBackgroundColor=none;fillColor=default;" parent="1" vertex="1">
          <mxGeometry x="2040" y="480" width="160" height="80" as="geometry" />
        </mxCell>
        <mxCell id="YGld60m3BobG-WvfS-7C-132" style="edgeStyle=orthogonalEdgeStyle;shape=connector;rounded=0;orthogonalLoop=1;jettySize=auto;html=1;exitX=0;exitY=0.5;exitDx=0;exitDy=0;entryX=0;entryY=0.5;entryDx=0;entryDy=0;strokeColor=default;align=center;verticalAlign=middle;fontFamily=Lucida Console;fontSize=13;fontColor=default;labelBackgroundColor=none;startFill=0;endArrow=classic;endFill=1;" parent="1" source="YGld60m3BobG-WvfS-7C-113" target="YGld60m3BobG-WvfS-7C-110" edge="1">
          <mxGeometry relative="1" as="geometry">
            <Array as="points">
              <mxPoint x="2030" y="630" />
              <mxPoint x="2030" y="410" />
            </Array>
          </mxGeometry>
        </mxCell>
        <mxCell id="YGld60m3BobG-WvfS-7C-113" value="s-&amp;gt;head = ptr-&amp;gt;next;&lt;br&gt;free(ptr);" style="rounded=0;whiteSpace=wrap;html=1;strokeColor=default;align=center;verticalAlign=middle;fontFamily=Lucida Console;fontSize=13;fontColor=default;labelBackgroundColor=none;fillColor=default;" parent="1" vertex="1">
          <mxGeometry x="2040" y="590" width="160" height="80" as="geometry" />
        </mxCell>
        <mxCell id="YGld60m3BobG-WvfS-7C-135" style="edgeStyle=orthogonalEdgeStyle;shape=connector;rounded=0;orthogonalLoop=1;jettySize=auto;html=1;exitX=0.5;exitY=1;exitDx=0;exitDy=0;entryX=0.5;entryY=0;entryDx=0;entryDy=0;strokeColor=default;align=center;verticalAlign=middle;fontFamily=Lucida Console;fontSize=13;fontColor=default;labelBackgroundColor=none;startFill=0;endArrow=none;" parent="1" source="YGld60m3BobG-WvfS-7C-114" target="YGld60m3BobG-WvfS-7C-115" edge="1">
          <mxGeometry relative="1" as="geometry" />
        </mxCell>
        <mxCell id="YGld60m3BobG-WvfS-7C-149" style="edgeStyle=orthogonalEdgeStyle;shape=connector;rounded=0;orthogonalLoop=1;jettySize=auto;html=1;exitX=1;exitY=0.5;exitDx=0;exitDy=0;entryX=0;entryY=0.5;entryDx=0;entryDy=0;strokeColor=default;align=center;verticalAlign=middle;fontFamily=Lucida Console;fontSize=13;fontColor=default;labelBackgroundColor=none;startFill=0;endArrow=none;" parent="1" source="YGld60m3BobG-WvfS-7C-114" target="YGld60m3BobG-WvfS-7C-148" edge="1">
          <mxGeometry relative="1" as="geometry" />
        </mxCell>
        <mxCell id="YGld60m3BobG-WvfS-7C-114" value="ptr = s-&amp;gt;head;&lt;br&gt;ptr != NULL;&lt;br&gt;ptr = next" style="shape=hexagon;perimeter=hexagonPerimeter2;whiteSpace=wrap;html=1;fixedSize=1;rounded=0;strokeColor=default;align=center;verticalAlign=middle;fontFamily=Lucida Console;fontSize=13;fontColor=default;labelBackgroundColor=none;fillColor=default;" parent="1" vertex="1">
          <mxGeometry x="2240" y="370" width="160" height="80" as="geometry" />
        </mxCell>
        <mxCell id="YGld60m3BobG-WvfS-7C-136" style="edgeStyle=orthogonalEdgeStyle;shape=connector;rounded=0;orthogonalLoop=1;jettySize=auto;html=1;exitX=0.5;exitY=1;exitDx=0;exitDy=0;entryX=0.5;entryY=0;entryDx=0;entryDy=0;strokeColor=default;align=center;verticalAlign=middle;fontFamily=Lucida Console;fontSize=13;fontColor=default;labelBackgroundColor=none;startFill=0;endArrow=none;" parent="1" source="YGld60m3BobG-WvfS-7C-115" target="YGld60m3BobG-WvfS-7C-116" edge="1">
          <mxGeometry relative="1" as="geometry" />
        </mxCell>
        <mxCell id="YGld60m3BobG-WvfS-7C-115" value="&lt;font style=&quot;font-size: 14px;&quot;&gt;next = ptr-&amp;gt;next;&lt;/font&gt;" style="rounded=0;whiteSpace=wrap;html=1;strokeColor=default;align=center;verticalAlign=middle;fontFamily=Lucida Console;fontSize=13;fontColor=default;labelBackgroundColor=none;fillColor=default;" parent="1" vertex="1">
          <mxGeometry x="2240" y="480" width="160" height="80" as="geometry" />
        </mxCell>
        <mxCell id="YGld60m3BobG-WvfS-7C-137" style="edgeStyle=orthogonalEdgeStyle;shape=connector;rounded=0;orthogonalLoop=1;jettySize=auto;html=1;exitX=0.5;exitY=1;exitDx=0;exitDy=0;entryX=0.5;entryY=0;entryDx=0;entryDy=0;strokeColor=default;align=center;verticalAlign=middle;fontFamily=Lucida Console;fontSize=13;fontColor=default;labelBackgroundColor=none;startFill=0;endArrow=none;" parent="1" source="YGld60m3BobG-WvfS-7C-116" target="YGld60m3BobG-WvfS-7C-117" edge="1">
          <mxGeometry relative="1" as="geometry" />
        </mxCell>
        <mxCell id="YGld60m3BobG-WvfS-7C-144" style="edgeStyle=orthogonalEdgeStyle;shape=connector;rounded=0;orthogonalLoop=1;jettySize=auto;html=1;exitX=1;exitY=0.5;exitDx=0;exitDy=0;entryX=0;entryY=0.5;entryDx=0;entryDy=0;strokeColor=default;align=center;verticalAlign=middle;fontFamily=Lucida Console;fontSize=13;fontColor=default;labelBackgroundColor=none;startFill=0;endArrow=none;" parent="1" source="YGld60m3BobG-WvfS-7C-116" target="YGld60m3BobG-WvfS-7C-123" edge="1">
          <mxGeometry relative="1" as="geometry" />
        </mxCell>
        <mxCell id="YGld60m3BobG-WvfS-7C-116" value="isblank(ptr-&amp;gt;c)" style="rhombus;whiteSpace=wrap;html=1;rounded=0;strokeColor=default;align=center;verticalAlign=middle;fontFamily=Lucida Console;fontSize=13;fontColor=default;labelBackgroundColor=none;fillColor=default;" parent="1" vertex="1">
          <mxGeometry x="2240" y="590" width="160" height="80" as="geometry" />
        </mxCell>
        <mxCell id="YGld60m3BobG-WvfS-7C-138" style="edgeStyle=orthogonalEdgeStyle;shape=connector;rounded=0;orthogonalLoop=1;jettySize=auto;html=1;exitX=0.5;exitY=1;exitDx=0;exitDy=0;entryX=0.5;entryY=0;entryDx=0;entryDy=0;strokeColor=default;align=center;verticalAlign=middle;fontFamily=Lucida Console;fontSize=13;fontColor=default;labelBackgroundColor=none;startFill=0;endArrow=none;" parent="1" source="YGld60m3BobG-WvfS-7C-117" target="YGld60m3BobG-WvfS-7C-118" edge="1">
          <mxGeometry relative="1" as="geometry" />
        </mxCell>
        <mxCell id="YGld60m3BobG-WvfS-7C-145" style="edgeStyle=orthogonalEdgeStyle;shape=connector;rounded=0;orthogonalLoop=1;jettySize=auto;html=1;exitX=1;exitY=0.5;exitDx=0;exitDy=0;entryX=0;entryY=0.5;entryDx=0;entryDy=0;strokeColor=default;align=center;verticalAlign=middle;fontFamily=Lucida Console;fontSize=13;fontColor=default;labelBackgroundColor=none;startFill=0;endArrow=none;" parent="1" source="YGld60m3BobG-WvfS-7C-117" target="YGld60m3BobG-WvfS-7C-122" edge="1">
          <mxGeometry relative="1" as="geometry" />
        </mxCell>
        <mxCell id="YGld60m3BobG-WvfS-7C-117" value="blank" style="rhombus;whiteSpace=wrap;html=1;rounded=0;strokeColor=default;align=center;verticalAlign=middle;fontFamily=Lucida Console;fontSize=13;fontColor=default;labelBackgroundColor=none;fillColor=default;" parent="1" vertex="1">
          <mxGeometry x="2240" y="700" width="160" height="80" as="geometry" />
        </mxCell>
        <mxCell id="YGld60m3BobG-WvfS-7C-139" style="edgeStyle=orthogonalEdgeStyle;shape=connector;rounded=0;orthogonalLoop=1;jettySize=auto;html=1;exitX=0.5;exitY=1;exitDx=0;exitDy=0;entryX=0.5;entryY=0;entryDx=0;entryDy=0;strokeColor=default;align=center;verticalAlign=middle;fontFamily=Lucida Console;fontSize=13;fontColor=default;labelBackgroundColor=none;startFill=0;endArrow=none;" parent="1" source="YGld60m3BobG-WvfS-7C-118" target="YGld60m3BobG-WvfS-7C-119" edge="1">
          <mxGeometry relative="1" as="geometry" />
        </mxCell>
        <mxCell id="YGld60m3BobG-WvfS-7C-118" value="prev-&amp;gt;next = next;" style="rounded=0;whiteSpace=wrap;html=1;strokeColor=default;align=center;verticalAlign=middle;fontFamily=Lucida Console;fontSize=13;fontColor=default;labelBackgroundColor=none;fillColor=default;" parent="1" vertex="1">
          <mxGeometry x="2240" y="810" width="160" height="80" as="geometry" />
        </mxCell>
        <mxCell id="YGld60m3BobG-WvfS-7C-140" style="edgeStyle=orthogonalEdgeStyle;shape=connector;rounded=0;orthogonalLoop=1;jettySize=auto;html=1;exitX=1;exitY=0.5;exitDx=0;exitDy=0;entryX=0;entryY=0.5;entryDx=0;entryDy=0;strokeColor=default;align=center;verticalAlign=middle;fontFamily=Lucida Console;fontSize=13;fontColor=default;labelBackgroundColor=none;startFill=0;endArrow=none;" parent="1" source="YGld60m3BobG-WvfS-7C-119" target="YGld60m3BobG-WvfS-7C-120" edge="1">
          <mxGeometry relative="1" as="geometry" />
        </mxCell>
        <mxCell id="YGld60m3BobG-WvfS-7C-142" style="edgeStyle=orthogonalEdgeStyle;shape=connector;rounded=0;orthogonalLoop=1;jettySize=auto;html=1;exitX=0.5;exitY=1;exitDx=0;exitDy=0;entryX=0.5;entryY=0;entryDx=0;entryDy=0;strokeColor=default;align=center;verticalAlign=middle;fontFamily=Lucida Console;fontSize=13;fontColor=default;labelBackgroundColor=none;startFill=0;endArrow=none;" parent="1" source="YGld60m3BobG-WvfS-7C-119" target="YGld60m3BobG-WvfS-7C-121" edge="1">
          <mxGeometry relative="1" as="geometry" />
        </mxCell>
        <mxCell id="YGld60m3BobG-WvfS-7C-119" value="next" style="rhombus;whiteSpace=wrap;html=1;rounded=0;strokeColor=default;align=center;verticalAlign=middle;fontFamily=Lucida Console;fontSize=13;fontColor=default;labelBackgroundColor=none;fillColor=default;" parent="1" vertex="1">
          <mxGeometry x="2240" y="920" width="160" height="80" as="geometry" />
        </mxCell>
        <mxCell id="YGld60m3BobG-WvfS-7C-141" style="edgeStyle=orthogonalEdgeStyle;shape=connector;rounded=0;orthogonalLoop=1;jettySize=auto;html=1;exitX=0.5;exitY=1;exitDx=0;exitDy=0;entryX=1;entryY=0.5;entryDx=0;entryDy=0;strokeColor=default;align=center;verticalAlign=middle;fontFamily=Lucida Console;fontSize=13;fontColor=default;labelBackgroundColor=none;startFill=0;endArrow=classic;endFill=1;" parent="1" source="YGld60m3BobG-WvfS-7C-120" target="YGld60m3BobG-WvfS-7C-121" edge="1">
          <mxGeometry relative="1" as="geometry" />
        </mxCell>
        <mxCell id="YGld60m3BobG-WvfS-7C-120" value="next-&amp;gt;prev = prev;" style="rounded=0;whiteSpace=wrap;html=1;strokeColor=default;align=center;verticalAlign=middle;fontFamily=Lucida Console;fontSize=13;fontColor=default;labelBackgroundColor=none;fillColor=default;" parent="1" vertex="1">
          <mxGeometry x="2440" y="920" width="160" height="80" as="geometry" />
        </mxCell>
        <mxCell id="YGld60m3BobG-WvfS-7C-143" style="edgeStyle=orthogonalEdgeStyle;shape=connector;rounded=0;orthogonalLoop=1;jettySize=auto;html=1;exitX=0;exitY=0.5;exitDx=0;exitDy=0;entryX=0;entryY=0.75;entryDx=0;entryDy=0;strokeColor=default;align=center;verticalAlign=middle;fontFamily=Lucida Console;fontSize=13;fontColor=default;labelBackgroundColor=none;startFill=0;endArrow=classic;endFill=1;" parent="1" source="YGld60m3BobG-WvfS-7C-121" target="YGld60m3BobG-WvfS-7C-114" edge="1">
          <mxGeometry relative="1" as="geometry">
            <Array as="points">
              <mxPoint x="2220" y="1070" />
              <mxPoint x="2220" y="428" />
            </Array>
          </mxGeometry>
        </mxCell>
        <mxCell id="YGld60m3BobG-WvfS-7C-121" value="free(ptr);" style="rounded=0;whiteSpace=wrap;html=1;strokeColor=default;align=center;verticalAlign=middle;fontFamily=Lucida Console;fontSize=13;fontColor=default;labelBackgroundColor=none;fillColor=default;" parent="1" vertex="1">
          <mxGeometry x="2240" y="1030" width="160" height="80" as="geometry" />
        </mxCell>
        <mxCell id="YGld60m3BobG-WvfS-7C-147" style="edgeStyle=orthogonalEdgeStyle;shape=connector;rounded=0;orthogonalLoop=1;jettySize=auto;html=1;exitX=1;exitY=0.5;exitDx=0;exitDy=0;strokeColor=default;align=center;verticalAlign=middle;fontFamily=Lucida Console;fontSize=13;fontColor=default;labelBackgroundColor=none;startFill=0;endArrow=classic;endFill=1;" parent="1" source="YGld60m3BobG-WvfS-7C-122" edge="1">
          <mxGeometry relative="1" as="geometry">
            <mxPoint x="2630" y="630" as="targetPoint" />
          </mxGeometry>
        </mxCell>
        <mxCell id="YGld60m3BobG-WvfS-7C-122" value="blank = 1;" style="rounded=0;whiteSpace=wrap;html=1;strokeColor=default;align=center;verticalAlign=middle;fontFamily=Lucida Console;fontSize=13;fontColor=default;labelBackgroundColor=none;fillColor=default;" parent="1" vertex="1">
          <mxGeometry x="2440" y="700" width="160" height="80" as="geometry" />
        </mxCell>
        <mxCell id="YGld60m3BobG-WvfS-7C-146" style="edgeStyle=orthogonalEdgeStyle;shape=connector;rounded=0;orthogonalLoop=1;jettySize=auto;html=1;exitX=1;exitY=0.5;exitDx=0;exitDy=0;entryX=0;entryY=0.5;entryDx=0;entryDy=0;strokeColor=default;align=center;verticalAlign=middle;fontFamily=Lucida Console;fontSize=13;fontColor=default;labelBackgroundColor=none;startFill=0;endArrow=none;" parent="1" source="YGld60m3BobG-WvfS-7C-123" target="YGld60m3BobG-WvfS-7C-124" edge="1">
          <mxGeometry relative="1" as="geometry" />
        </mxCell>
        <mxCell id="YGld60m3BobG-WvfS-7C-123" value="last_non_blank = ptr;&lt;br&gt;blank = 0;" style="rounded=0;whiteSpace=wrap;html=1;strokeColor=default;align=center;verticalAlign=middle;fontFamily=Lucida Console;fontSize=13;fontColor=default;labelBackgroundColor=none;fillColor=default;" parent="1" vertex="1">
          <mxGeometry x="2440" y="590" width="160" height="80" as="geometry" />
        </mxCell>
        <mxCell id="YGld60m3BobG-WvfS-7C-150" style="edgeStyle=orthogonalEdgeStyle;shape=connector;rounded=0;orthogonalLoop=1;jettySize=auto;html=1;exitX=1;exitY=0.5;exitDx=0;exitDy=0;strokeColor=default;align=center;verticalAlign=middle;fontFamily=Lucida Console;fontSize=13;fontColor=default;labelBackgroundColor=none;startFill=0;endArrow=classic;endFill=1;" parent="1" source="YGld60m3BobG-WvfS-7C-124" edge="1">
          <mxGeometry relative="1" as="geometry">
            <mxPoint x="2830" y="410" as="targetPoint" />
          </mxGeometry>
        </mxCell>
        <mxCell id="YGld60m3BobG-WvfS-7C-151" style="edgeStyle=orthogonalEdgeStyle;shape=connector;rounded=0;orthogonalLoop=1;jettySize=auto;html=1;exitX=0.5;exitY=1;exitDx=0;exitDy=0;entryX=0.5;entryY=0;entryDx=0;entryDy=0;strokeColor=default;align=center;verticalAlign=middle;fontFamily=Lucida Console;fontSize=13;fontColor=default;labelBackgroundColor=none;startFill=0;endArrow=none;" parent="1" source="YGld60m3BobG-WvfS-7C-124" target="YGld60m3BobG-WvfS-7C-125" edge="1">
          <mxGeometry relative="1" as="geometry" />
        </mxCell>
        <mxCell id="YGld60m3BobG-WvfS-7C-124" value="ptr == s-&amp;gt;tail" style="rhombus;whiteSpace=wrap;html=1;rounded=0;strokeColor=default;align=center;verticalAlign=middle;fontFamily=Lucida Console;fontSize=13;fontColor=default;labelBackgroundColor=none;fillColor=default;" parent="1" vertex="1">
          <mxGeometry x="2640" y="590" width="160" height="80" as="geometry" />
        </mxCell>
        <mxCell id="YGld60m3BobG-WvfS-7C-152" style="edgeStyle=orthogonalEdgeStyle;shape=connector;rounded=0;orthogonalLoop=1;jettySize=auto;html=1;exitX=0.5;exitY=1;exitDx=0;exitDy=0;strokeColor=default;align=center;verticalAlign=middle;fontFamily=Lucida Console;fontSize=13;fontColor=default;labelBackgroundColor=none;startFill=0;endArrow=classic;endFill=1;" parent="1" source="YGld60m3BobG-WvfS-7C-125" edge="1">
          <mxGeometry relative="1" as="geometry">
            <mxPoint x="2219.090909090909" y="1070" as="targetPoint" />
            <Array as="points">
              <mxPoint x="2720" y="1120" />
              <mxPoint x="2219" y="1120" />
            </Array>
          </mxGeometry>
        </mxCell>
        <mxCell id="YGld60m3BobG-WvfS-7C-125" value="prev = ptr;" style="rounded=0;whiteSpace=wrap;html=1;strokeColor=default;align=center;verticalAlign=middle;fontFamily=Lucida Console;fontSize=13;fontColor=default;labelBackgroundColor=none;fillColor=default;" parent="1" vertex="1">
          <mxGeometry x="2640" y="700" width="160" height="80" as="geometry" />
        </mxCell>
        <mxCell id="YGld60m3BobG-WvfS-7C-157" style="edgeStyle=orthogonalEdgeStyle;shape=connector;rounded=0;orthogonalLoop=1;jettySize=auto;html=1;exitX=1;exitY=0.5;exitDx=0;exitDy=0;entryX=0;entryY=0.5;entryDx=0;entryDy=0;strokeColor=default;align=center;verticalAlign=middle;fontFamily=Lucida Console;fontSize=13;fontColor=default;labelBackgroundColor=none;startFill=0;endArrow=none;" parent="1" source="YGld60m3BobG-WvfS-7C-148" target="YGld60m3BobG-WvfS-7C-156" edge="1">
          <mxGeometry relative="1" as="geometry" />
        </mxCell>
        <mxCell id="YGld60m3BobG-WvfS-7C-158" style="edgeStyle=orthogonalEdgeStyle;shape=connector;rounded=0;orthogonalLoop=1;jettySize=auto;html=1;exitX=0.5;exitY=1;exitDx=0;exitDy=0;entryX=0.5;entryY=0;entryDx=0;entryDy=0;strokeColor=default;align=center;verticalAlign=middle;fontFamily=Lucida Console;fontSize=13;fontColor=default;labelBackgroundColor=none;startFill=0;endArrow=none;" parent="1" source="YGld60m3BobG-WvfS-7C-148" target="YGld60m3BobG-WvfS-7C-153" edge="1">
          <mxGeometry relative="1" as="geometry" />
        </mxCell>
        <mxCell id="YGld60m3BobG-WvfS-7C-148" value="!blank" style="rhombus;whiteSpace=wrap;html=1;rounded=0;strokeColor=default;align=center;verticalAlign=middle;fontFamily=Lucida Console;fontSize=13;fontColor=default;labelBackgroundColor=none;fillColor=default;" parent="1" vertex="1">
          <mxGeometry x="2840" y="370" width="160" height="80" as="geometry" />
        </mxCell>
        <mxCell id="YGld60m3BobG-WvfS-7C-159" style="edgeStyle=orthogonalEdgeStyle;shape=connector;rounded=0;orthogonalLoop=1;jettySize=auto;html=1;exitX=0.5;exitY=1;exitDx=0;exitDy=0;entryX=0.5;entryY=0;entryDx=0;entryDy=0;strokeColor=default;align=center;verticalAlign=middle;fontFamily=Lucida Console;fontSize=13;fontColor=default;labelBackgroundColor=none;startFill=0;endArrow=none;" parent="1" source="YGld60m3BobG-WvfS-7C-153" target="YGld60m3BobG-WvfS-7C-154" edge="1">
          <mxGeometry relative="1" as="geometry" />
        </mxCell>
        <mxCell id="YGld60m3BobG-WvfS-7C-153" value="CharNode *end = (CharNode *)&lt;br&gt;malloc(&lt;br&gt;sizeof(CharNode));" style="rounded=0;whiteSpace=wrap;html=1;strokeColor=default;align=center;verticalAlign=middle;fontFamily=Lucida Console;fontSize=13;fontColor=default;labelBackgroundColor=none;fillColor=default;" parent="1" vertex="1">
          <mxGeometry x="2840" y="480" width="160" height="80" as="geometry" />
        </mxCell>
        <mxCell id="YGld60m3BobG-WvfS-7C-160" style="edgeStyle=orthogonalEdgeStyle;shape=connector;rounded=0;orthogonalLoop=1;jettySize=auto;html=1;exitX=0.5;exitY=1;exitDx=0;exitDy=0;entryX=0.5;entryY=0;entryDx=0;entryDy=0;strokeColor=default;align=center;verticalAlign=middle;fontFamily=Lucida Console;fontSize=13;fontColor=default;labelBackgroundColor=none;startFill=0;endArrow=none;" parent="1" source="YGld60m3BobG-WvfS-7C-154" target="YGld60m3BobG-WvfS-7C-155" edge="1">
          <mxGeometry relative="1" as="geometry" />
        </mxCell>
        <mxCell id="YGld60m3BobG-WvfS-7C-154" value="end-&amp;gt;c = &#39; &#39;;&lt;br&gt;s-&amp;gt;tail = end;&lt;br&gt;end-&amp;gt;next = NULL;" style="rounded=0;whiteSpace=wrap;html=1;strokeColor=default;align=center;verticalAlign=middle;fontFamily=Lucida Console;fontSize=13;fontColor=default;labelBackgroundColor=none;fillColor=default;" parent="1" vertex="1">
          <mxGeometry x="2840" y="590" width="160" height="80" as="geometry" />
        </mxCell>
        <mxCell id="YGld60m3BobG-WvfS-7C-161" style="edgeStyle=orthogonalEdgeStyle;shape=connector;rounded=0;orthogonalLoop=1;jettySize=auto;html=1;exitX=1;exitY=0.5;exitDx=0;exitDy=0;strokeColor=default;align=center;verticalAlign=middle;fontFamily=Lucida Console;fontSize=13;fontColor=default;labelBackgroundColor=none;startFill=0;endArrow=classic;endFill=1;" parent="1" source="YGld60m3BobG-WvfS-7C-155" edge="1">
          <mxGeometry relative="1" as="geometry">
            <mxPoint x="3030" y="409.9999999999998" as="targetPoint" />
          </mxGeometry>
        </mxCell>
        <mxCell id="YGld60m3BobG-WvfS-7C-155" value="end-&amp;gt;prev = last_non_blank;&lt;div&gt;last_non_blank-&amp;gt;next = end;&lt;/div&gt;" style="rounded=0;whiteSpace=wrap;html=1;strokeColor=default;align=center;verticalAlign=middle;fontFamily=Lucida Console;fontSize=13;fontColor=default;labelBackgroundColor=none;fillColor=default;" parent="1" vertex="1">
          <mxGeometry x="2840" y="700" width="160" height="80" as="geometry" />
        </mxCell>
        <mxCell id="YGld60m3BobG-WvfS-7C-156" value="&lt;font style=&quot;font-size: 18px;&quot;&gt;Конец&lt;/font&gt;" style="rounded=1;whiteSpace=wrap;html=1;strokeColor=default;align=center;verticalAlign=middle;fontFamily=Lucida Console;fontSize=13;fontColor=default;labelBackgroundColor=none;fillColor=default;arcSize=50;" parent="1" vertex="1">
          <mxGeometry x="3040" y="370" width="160" height="80" as="geometry" />
        </mxCell>
        <mxCell id="YGld60m3BobG-WvfS-7C-162" value="да" style="text;html=1;align=center;verticalAlign=middle;resizable=0;points=[];autosize=1;strokeColor=none;fillColor=none;fontFamily=Lucida Console;fontSize=13;fontColor=default;labelBackgroundColor=none;" parent="1" vertex="1">
          <mxGeometry x="190" y="388" width="40" height="30" as="geometry" />
        </mxCell>
        <mxCell id="YGld60m3BobG-WvfS-7C-163" value="нет" style="text;html=1;align=center;verticalAlign=middle;resizable=0;points=[];autosize=1;strokeColor=none;fillColor=none;fontFamily=Lucida Console;fontSize=13;fontColor=default;labelBackgroundColor=none;" parent="1" vertex="1">
          <mxGeometry x="75" y="438" width="50" height="30" as="geometry" />
        </mxCell>
        <mxCell id="YGld60m3BobG-WvfS-7C-164" value="да" style="text;html=1;align=center;verticalAlign=middle;resizable=0;points=[];autosize=1;strokeColor=none;fillColor=none;fontFamily=Lucida Console;fontSize=13;fontColor=default;labelBackgroundColor=none;" parent="1" vertex="1">
          <mxGeometry x="190" y="608" width="40" height="30" as="geometry" />
        </mxCell>
        <mxCell id="YGld60m3BobG-WvfS-7C-165" value="нет" style="text;html=1;align=center;verticalAlign=middle;resizable=0;points=[];autosize=1;strokeColor=none;fillColor=none;fontFamily=Lucida Console;fontSize=13;fontColor=default;labelBackgroundColor=none;" parent="1" vertex="1">
          <mxGeometry x="75" y="658" width="50" height="30" as="geometry" />
        </mxCell>
        <mxCell id="YGld60m3BobG-WvfS-7C-166" value="да" style="text;html=1;align=center;verticalAlign=middle;resizable=0;points=[];autosize=1;strokeColor=none;fillColor=none;fontFamily=Lucida Console;fontSize=13;fontColor=default;labelBackgroundColor=none;" parent="1" vertex="1">
          <mxGeometry x="490" y="658" width="40" height="30" as="geometry" />
        </mxCell>
        <mxCell id="YGld60m3BobG-WvfS-7C-167" value="нет" style="text;html=1;align=center;verticalAlign=middle;resizable=0;points=[];autosize=1;strokeColor=none;fillColor=none;fontFamily=Lucida Console;fontSize=13;fontColor=default;labelBackgroundColor=none;" parent="1" vertex="1">
          <mxGeometry x="590" y="608" width="50" height="30" as="geometry" />
        </mxCell>
        <mxCell id="YGld60m3BobG-WvfS-7C-168" value="да" style="text;html=1;align=center;verticalAlign=middle;resizable=0;points=[];autosize=1;strokeColor=none;fillColor=none;fontFamily=Lucida Console;fontSize=13;fontColor=default;labelBackgroundColor=none;" parent="1" vertex="1">
          <mxGeometry x="690" y="658" width="40" height="30" as="geometry" />
        </mxCell>
        <mxCell id="YGld60m3BobG-WvfS-7C-169" value="нет" style="text;html=1;align=center;verticalAlign=middle;resizable=0;points=[];autosize=1;strokeColor=none;fillColor=none;fontFamily=Lucida Console;fontSize=13;fontColor=default;labelBackgroundColor=none;" parent="1" vertex="1">
          <mxGeometry x="790" y="608" width="50" height="30" as="geometry" />
        </mxCell>
        <mxCell id="YGld60m3BobG-WvfS-7C-170" value="да" style="text;html=1;align=center;verticalAlign=middle;resizable=0;points=[];autosize=1;strokeColor=none;fillColor=none;fontFamily=Lucida Console;fontSize=13;fontColor=default;labelBackgroundColor=none;" parent="1" vertex="1">
          <mxGeometry x="790" y="830" width="40" height="30" as="geometry" />
        </mxCell>
        <mxCell id="YGld60m3BobG-WvfS-7C-171" value="нет" style="text;html=1;align=center;verticalAlign=middle;resizable=0;points=[];autosize=1;strokeColor=none;fillColor=none;fontFamily=Lucida Console;fontSize=13;fontColor=default;labelBackgroundColor=none;" parent="1" vertex="1">
          <mxGeometry x="680" y="878" width="50" height="30" as="geometry" />
        </mxCell>
        <mxCell id="YGld60m3BobG-WvfS-7C-172" value="да" style="text;html=1;align=center;verticalAlign=middle;resizable=0;points=[];autosize=1;strokeColor=none;fillColor=none;fontFamily=Lucida Console;fontSize=13;fontColor=default;labelBackgroundColor=none;" parent="1" vertex="1">
          <mxGeometry x="1170" y="598" width="40" height="30" as="geometry" />
        </mxCell>
        <mxCell id="YGld60m3BobG-WvfS-7C-173" value="нет" style="text;html=1;align=center;verticalAlign=middle;resizable=0;points=[];autosize=1;strokeColor=none;fillColor=none;fontFamily=Lucida Console;fontSize=13;fontColor=default;labelBackgroundColor=none;" parent="1" vertex="1">
          <mxGeometry x="1080" y="658" width="50" height="30" as="geometry" />
        </mxCell>
        <mxCell id="YGld60m3BobG-WvfS-7C-174" value="да" style="text;html=1;align=center;verticalAlign=middle;resizable=0;points=[];autosize=1;strokeColor=none;fillColor=none;fontFamily=Lucida Console;fontSize=13;fontColor=default;labelBackgroundColor=none;" parent="1" vertex="1">
          <mxGeometry x="1290" y="438" width="40" height="30" as="geometry" />
        </mxCell>
        <mxCell id="YGld60m3BobG-WvfS-7C-175" value="нет" style="text;html=1;align=center;verticalAlign=middle;resizable=0;points=[];autosize=1;strokeColor=none;fillColor=none;fontFamily=Lucida Console;fontSize=13;fontColor=default;labelBackgroundColor=none;" parent="1" vertex="1">
          <mxGeometry x="1390" y="388" width="50" height="30" as="geometry" />
        </mxCell>
        <mxCell id="YGld60m3BobG-WvfS-7C-177" value="да" style="text;html=1;align=center;verticalAlign=middle;resizable=0;points=[];autosize=1;strokeColor=none;fillColor=none;fontFamily=Lucida Console;fontSize=13;fontColor=default;labelBackgroundColor=none;" parent="1" vertex="1">
          <mxGeometry x="1220" y="490" width="40" height="30" as="geometry" />
        </mxCell>
        <mxCell id="YGld60m3BobG-WvfS-7C-178" value="нет" style="text;html=1;align=center;verticalAlign=middle;resizable=0;points=[];autosize=1;strokeColor=none;fillColor=none;fontFamily=Lucida Console;fontSize=13;fontColor=default;labelBackgroundColor=none;" parent="1" vertex="1">
          <mxGeometry x="1315" y="548" width="50" height="30" as="geometry" />
        </mxCell>
        <mxCell id="YGld60m3BobG-WvfS-7C-179" value="да" style="text;html=1;align=center;verticalAlign=middle;resizable=0;points=[];autosize=1;strokeColor=none;fillColor=none;fontFamily=Lucida Console;fontSize=13;fontColor=default;labelBackgroundColor=none;" parent="1" vertex="1">
          <mxGeometry x="1390" y="718" width="40" height="30" as="geometry" />
        </mxCell>
        <mxCell id="YGld60m3BobG-WvfS-7C-180" value="нет" style="text;html=1;align=center;verticalAlign=middle;resizable=0;points=[];autosize=1;strokeColor=none;fillColor=none;fontFamily=Lucida Console;fontSize=13;fontColor=default;labelBackgroundColor=none;" parent="1" vertex="1">
          <mxGeometry x="1275" y="768" width="50" height="30" as="geometry" />
        </mxCell>
        <mxCell id="YGld60m3BobG-WvfS-7C-181" value="да" style="text;html=1;align=center;verticalAlign=middle;resizable=0;points=[];autosize=1;strokeColor=none;fillColor=none;fontFamily=Lucida Console;fontSize=13;fontColor=default;labelBackgroundColor=none;" parent="1" vertex="1">
          <mxGeometry x="1390" y="938" width="40" height="30" as="geometry" />
        </mxCell>
        <mxCell id="YGld60m3BobG-WvfS-7C-182" value="нет" style="text;html=1;align=center;verticalAlign=middle;resizable=0;points=[];autosize=1;strokeColor=none;fillColor=none;fontFamily=Lucida Console;fontSize=13;fontColor=default;labelBackgroundColor=none;" parent="1" vertex="1">
          <mxGeometry x="1275" y="988" width="50" height="30" as="geometry" />
        </mxCell>
        <mxCell id="YGld60m3BobG-WvfS-7C-183" value="да" style="text;html=1;align=center;verticalAlign=middle;resizable=0;points=[];autosize=1;strokeColor=none;fillColor=none;fontFamily=Lucida Console;fontSize=13;fontColor=default;labelBackgroundColor=none;" parent="1" vertex="1">
          <mxGeometry x="1680" y="438" width="40" height="30" as="geometry" />
        </mxCell>
        <mxCell id="YGld60m3BobG-WvfS-7C-184" value="нет" style="text;html=1;align=center;verticalAlign=middle;resizable=0;points=[];autosize=1;strokeColor=none;fillColor=none;fontFamily=Lucida Console;fontSize=13;fontColor=default;labelBackgroundColor=none;" parent="1" vertex="1">
          <mxGeometry x="1785" y="388" width="50" height="30" as="geometry" />
        </mxCell>
        <mxCell id="YGld60m3BobG-WvfS-7C-185" value="да" style="text;html=1;align=center;verticalAlign=middle;resizable=0;points=[];autosize=1;strokeColor=none;fillColor=none;fontFamily=Lucida Console;fontSize=13;fontColor=default;labelBackgroundColor=none;" parent="1" vertex="1">
          <mxGeometry x="2190" y="278" width="40" height="30" as="geometry" />
        </mxCell>
        <mxCell id="YGld60m3BobG-WvfS-7C-186" value="нет" style="text;html=1;align=center;verticalAlign=middle;resizable=0;points=[];autosize=1;strokeColor=none;fillColor=none;fontFamily=Lucida Console;fontSize=13;fontColor=default;labelBackgroundColor=none;" parent="1" vertex="1">
          <mxGeometry x="2075" y="328" width="50" height="30" as="geometry" />
        </mxCell>
        <mxCell id="YGld60m3BobG-WvfS-7C-187" value="да" style="text;html=1;align=center;verticalAlign=middle;resizable=0;points=[];autosize=1;strokeColor=none;fillColor=none;fontFamily=Lucida Console;fontSize=13;fontColor=default;labelBackgroundColor=none;" parent="1" vertex="1">
          <mxGeometry x="2085" y="438" width="40" height="30" as="geometry" />
        </mxCell>
        <mxCell id="YGld60m3BobG-WvfS-7C-188" value="нет" style="text;html=1;align=center;verticalAlign=middle;resizable=0;points=[];autosize=1;strokeColor=none;fillColor=none;fontFamily=Lucida Console;fontSize=13;fontColor=default;labelBackgroundColor=none;" parent="1" vertex="1">
          <mxGeometry x="2185" y="388" width="50" height="30" as="geometry" />
        </mxCell>
        <mxCell id="YGld60m3BobG-WvfS-7C-189" value="да" style="text;html=1;align=center;verticalAlign=middle;resizable=0;points=[];autosize=1;strokeColor=none;fillColor=none;fontFamily=Lucida Console;fontSize=13;fontColor=default;labelBackgroundColor=none;" parent="1" vertex="1">
          <mxGeometry x="2280" y="658" width="40" height="30" as="geometry" />
        </mxCell>
        <mxCell id="YGld60m3BobG-WvfS-7C-190" value="нет" style="text;html=1;align=center;verticalAlign=middle;resizable=0;points=[];autosize=1;strokeColor=none;fillColor=none;fontFamily=Lucida Console;fontSize=13;fontColor=default;labelBackgroundColor=none;" parent="1" vertex="1">
          <mxGeometry x="2380" y="608" width="50" height="30" as="geometry" />
        </mxCell>
        <mxCell id="YGld60m3BobG-WvfS-7C-191" value="да" style="text;html=1;align=center;verticalAlign=middle;resizable=0;points=[];autosize=1;strokeColor=none;fillColor=none;fontFamily=Lucida Console;fontSize=13;fontColor=default;labelBackgroundColor=none;" parent="1" vertex="1">
          <mxGeometry x="2280" y="768" width="40" height="30" as="geometry" />
        </mxCell>
        <mxCell id="YGld60m3BobG-WvfS-7C-192" value="нет" style="text;html=1;align=center;verticalAlign=middle;resizable=0;points=[];autosize=1;strokeColor=none;fillColor=none;fontFamily=Lucida Console;fontSize=13;fontColor=default;labelBackgroundColor=none;" parent="1" vertex="1">
          <mxGeometry x="2380" y="718" width="50" height="30" as="geometry" />
        </mxCell>
        <mxCell id="YGld60m3BobG-WvfS-7C-193" value="да" style="text;html=1;align=center;verticalAlign=middle;resizable=0;points=[];autosize=1;strokeColor=none;fillColor=none;fontFamily=Lucida Console;fontSize=13;fontColor=default;labelBackgroundColor=none;" parent="1" vertex="1">
          <mxGeometry x="2385" y="938" width="40" height="30" as="geometry" />
        </mxCell>
        <mxCell id="YGld60m3BobG-WvfS-7C-194" value="нет" style="text;html=1;align=center;verticalAlign=middle;resizable=0;points=[];autosize=1;strokeColor=none;fillColor=none;fontFamily=Lucida Console;fontSize=13;fontColor=default;labelBackgroundColor=none;" parent="1" vertex="1">
          <mxGeometry x="2280" y="988" width="50" height="30" as="geometry" />
        </mxCell>
        <mxCell id="YGld60m3BobG-WvfS-7C-195" value="да" style="text;html=1;align=center;verticalAlign=middle;resizable=0;points=[];autosize=1;strokeColor=none;fillColor=none;fontFamily=Lucida Console;fontSize=13;fontColor=default;labelBackgroundColor=none;" parent="1" vertex="1">
          <mxGeometry x="2790" y="608" width="40" height="30" as="geometry" />
        </mxCell>
        <mxCell id="YGld60m3BobG-WvfS-7C-196" value="нет" style="text;html=1;align=center;verticalAlign=middle;resizable=0;points=[];autosize=1;strokeColor=none;fillColor=none;fontFamily=Lucida Console;fontSize=13;fontColor=default;labelBackgroundColor=none;" parent="1" vertex="1">
          <mxGeometry x="2675" y="658" width="50" height="30" as="geometry" />
        </mxCell>
        <mxCell id="YGld60m3BobG-WvfS-7C-197" value="да" style="text;html=1;align=center;verticalAlign=middle;resizable=0;points=[];autosize=1;strokeColor=none;fillColor=none;fontFamily=Lucida Console;fontSize=13;fontColor=default;labelBackgroundColor=none;" parent="1" vertex="1">
          <mxGeometry x="2890" y="438" width="40" height="30" as="geometry" />
        </mxCell>
        <mxCell id="YGld60m3BobG-WvfS-7C-198" value="нет" style="text;html=1;align=center;verticalAlign=middle;resizable=0;points=[];autosize=1;strokeColor=none;fillColor=none;fontFamily=Lucida Console;fontSize=13;fontColor=default;labelBackgroundColor=none;" parent="1" vertex="1">
          <mxGeometry x="2980" y="388" width="50" height="30" as="geometry" />
        </mxCell>
        <mxCell id="YGld60m3BobG-WvfS-7C-199" value="да" style="text;html=1;align=center;verticalAlign=middle;resizable=0;points=[];autosize=1;strokeColor=none;fillColor=none;fontFamily=Lucida Console;fontSize=13;fontColor=default;labelBackgroundColor=none;" parent="1" vertex="1">
          <mxGeometry x="190" y="1598" width="40" height="30" as="geometry" />
        </mxCell>
        <mxCell id="YGld60m3BobG-WvfS-7C-200" value="нет" style="text;html=1;align=center;verticalAlign=middle;resizable=0;points=[];autosize=1;strokeColor=none;fillColor=none;fontFamily=Lucida Console;fontSize=13;fontColor=default;labelBackgroundColor=none;" parent="1" vertex="1">
          <mxGeometry x="75" y="1648" width="50" height="30" as="geometry" />
        </mxCell>
        <mxCell id="YGld60m3BobG-WvfS-7C-202" value="да" style="text;html=1;align=center;verticalAlign=middle;resizable=0;points=[];autosize=1;strokeColor=none;fillColor=none;fontFamily=Lucida Console;fontSize=13;fontColor=default;labelBackgroundColor=none;" parent="1" vertex="1">
          <mxGeometry x="190" y="1708" width="40" height="30" as="geometry" />
        </mxCell>
        <mxCell id="YGld60m3BobG-WvfS-7C-203" value="нет" style="text;html=1;align=center;verticalAlign=middle;resizable=0;points=[];autosize=1;strokeColor=none;fillColor=none;fontFamily=Lucida Console;fontSize=13;fontColor=default;labelBackgroundColor=none;" parent="1" vertex="1">
          <mxGeometry x="75" y="1758" width="50" height="30" as="geometry" />
        </mxCell>
        <mxCell id="YGld60m3BobG-WvfS-7C-204" value="да" style="text;html=1;align=center;verticalAlign=middle;resizable=0;points=[];autosize=1;strokeColor=none;fillColor=none;fontFamily=Lucida Console;fontSize=13;fontColor=default;labelBackgroundColor=none;" parent="1" vertex="1">
          <mxGeometry x="580" y="1590" width="40" height="30" as="geometry" />
        </mxCell>
        <mxCell id="YGld60m3BobG-WvfS-7C-205" value="нет" style="text;html=1;align=center;verticalAlign=middle;resizable=0;points=[];autosize=1;strokeColor=none;fillColor=none;fontFamily=Lucida Console;fontSize=13;fontColor=default;labelBackgroundColor=none;" parent="1" vertex="1">
          <mxGeometry x="480" y="1648" width="50" height="30" as="geometry" />
        </mxCell>
        <mxCell id="YGld60m3BobG-WvfS-7C-216" style="edgeStyle=orthogonalEdgeStyle;shape=connector;rounded=0;orthogonalLoop=1;jettySize=auto;html=1;exitX=0.5;exitY=1;exitDx=0;exitDy=0;entryX=0.5;entryY=0;entryDx=0;entryDy=0;strokeColor=default;align=center;verticalAlign=middle;fontFamily=Lucida Console;fontSize=13;fontColor=default;labelBackgroundColor=none;startFill=0;endArrow=none;" parent="1" source="YGld60m3BobG-WvfS-7C-206" target="YGld60m3BobG-WvfS-7C-207" edge="1">
          <mxGeometry relative="1" as="geometry" />
        </mxCell>
        <mxCell id="YGld60m3BobG-WvfS-7C-206" value="Начало void print_string(String s)" style="rounded=1;whiteSpace=wrap;html=1;strokeColor=default;align=center;verticalAlign=middle;fontFamily=Lucida Console;fontSize=13;fontColor=default;labelBackgroundColor=none;fillColor=default;arcSize=50;" parent="1" vertex="1">
          <mxGeometry x="640" y="1140" width="160" height="80" as="geometry" />
        </mxCell>
        <mxCell id="YGld60m3BobG-WvfS-7C-217" style="edgeStyle=orthogonalEdgeStyle;shape=connector;rounded=0;orthogonalLoop=1;jettySize=auto;html=1;exitX=0.5;exitY=1;exitDx=0;exitDy=0;entryX=0.5;entryY=0;entryDx=0;entryDy=0;strokeColor=default;align=center;verticalAlign=middle;fontFamily=Lucida Console;fontSize=13;fontColor=default;labelBackgroundColor=none;startFill=0;endArrow=none;" parent="1" source="YGld60m3BobG-WvfS-7C-207" target="YGld60m3BobG-WvfS-7C-209" edge="1">
          <mxGeometry relative="1" as="geometry" />
        </mxCell>
        <mxCell id="YGld60m3BobG-WvfS-7C-207" value="CharNode *next;" style="rounded=0;whiteSpace=wrap;html=1;strokeColor=default;align=center;verticalAlign=middle;fontFamily=Lucida Console;fontSize=13;fontColor=default;labelBackgroundColor=none;fillColor=default;" parent="1" vertex="1">
          <mxGeometry x="640" y="1250" width="160" height="80" as="geometry" />
        </mxCell>
        <mxCell id="YGld60m3BobG-WvfS-7C-218" style="edgeStyle=orthogonalEdgeStyle;shape=connector;rounded=0;orthogonalLoop=1;jettySize=auto;html=1;exitX=0.5;exitY=1;exitDx=0;exitDy=0;entryX=0.5;entryY=0;entryDx=0;entryDy=0;strokeColor=default;align=center;verticalAlign=middle;fontFamily=Lucida Console;fontSize=13;fontColor=default;labelBackgroundColor=none;startFill=0;endArrow=none;" parent="1" source="YGld60m3BobG-WvfS-7C-209" target="YGld60m3BobG-WvfS-7C-210" edge="1">
          <mxGeometry relative="1" as="geometry" />
        </mxCell>
        <mxCell id="YGld60m3BobG-WvfS-7C-209" value="printf(&quot;\&quot;&quot;);" style="shape=parallelogram;perimeter=parallelogramPerimeter;whiteSpace=wrap;html=1;fixedSize=1;rounded=0;strokeColor=default;align=center;verticalAlign=middle;fontFamily=Lucida Console;fontSize=13;fontColor=default;labelBackgroundColor=none;fillColor=default;" parent="1" vertex="1">
          <mxGeometry x="640" y="1360" width="160" height="80" as="geometry" />
        </mxCell>
        <mxCell id="YGld60m3BobG-WvfS-7C-219" style="edgeStyle=orthogonalEdgeStyle;shape=connector;rounded=0;orthogonalLoop=1;jettySize=auto;html=1;exitX=0.5;exitY=1;exitDx=0;exitDy=0;entryX=0.5;entryY=0;entryDx=0;entryDy=0;strokeColor=default;align=center;verticalAlign=middle;fontFamily=Lucida Console;fontSize=13;fontColor=default;labelBackgroundColor=none;startFill=0;endArrow=none;" parent="1" source="YGld60m3BobG-WvfS-7C-210" target="YGld60m3BobG-WvfS-7C-211" edge="1">
          <mxGeometry relative="1" as="geometry" />
        </mxCell>
        <mxCell id="YGld60m3BobG-WvfS-7C-223" style="edgeStyle=orthogonalEdgeStyle;shape=connector;rounded=0;orthogonalLoop=1;jettySize=auto;html=1;exitX=1;exitY=0.5;exitDx=0;exitDy=0;entryX=0;entryY=0.5;entryDx=0;entryDy=0;strokeColor=default;align=center;verticalAlign=middle;fontFamily=Lucida Console;fontSize=13;fontColor=default;labelBackgroundColor=none;startFill=0;endArrow=none;" parent="1" source="YGld60m3BobG-WvfS-7C-210" target="YGld60m3BobG-WvfS-7C-214" edge="1">
          <mxGeometry relative="1" as="geometry" />
        </mxCell>
        <mxCell id="YGld60m3BobG-WvfS-7C-210" value="CharNode *ptr = s.head;&lt;br&gt;ptr != NULL;&lt;br&gt;ptr = next" style="shape=hexagon;perimeter=hexagonPerimeter2;whiteSpace=wrap;html=1;fixedSize=1;rounded=0;strokeColor=default;align=center;verticalAlign=middle;fontFamily=Lucida Console;fontSize=13;fontColor=default;labelBackgroundColor=none;fillColor=default;" parent="1" vertex="1">
          <mxGeometry x="640" y="1470" width="160" height="80" as="geometry" />
        </mxCell>
        <mxCell id="YGld60m3BobG-WvfS-7C-220" style="edgeStyle=orthogonalEdgeStyle;shape=connector;rounded=0;orthogonalLoop=1;jettySize=auto;html=1;exitX=0.5;exitY=1;exitDx=0;exitDy=0;entryX=0.5;entryY=0;entryDx=0;entryDy=0;strokeColor=default;align=center;verticalAlign=middle;fontFamily=Lucida Console;fontSize=13;fontColor=default;labelBackgroundColor=none;startFill=0;endArrow=none;" parent="1" source="YGld60m3BobG-WvfS-7C-211" target="YGld60m3BobG-WvfS-7C-212" edge="1">
          <mxGeometry relative="1" as="geometry" />
        </mxCell>
        <mxCell id="YGld60m3BobG-WvfS-7C-211" value="next = ptr-&amp;gt;next;" style="rounded=0;whiteSpace=wrap;html=1;strokeColor=default;align=center;verticalAlign=middle;fontFamily=Lucida Console;fontSize=13;fontColor=default;labelBackgroundColor=none;fillColor=default;" parent="1" vertex="1">
          <mxGeometry x="640" y="1580" width="160" height="80" as="geometry" />
        </mxCell>
        <mxCell id="YGld60m3BobG-WvfS-7C-221" style="edgeStyle=orthogonalEdgeStyle;shape=connector;rounded=0;orthogonalLoop=1;jettySize=auto;html=1;exitX=0.5;exitY=1;exitDx=0;exitDy=0;entryX=0.5;entryY=0;entryDx=0;entryDy=0;strokeColor=default;align=center;verticalAlign=middle;fontFamily=Lucida Console;fontSize=13;fontColor=default;labelBackgroundColor=none;startFill=0;endArrow=none;" parent="1" source="YGld60m3BobG-WvfS-7C-212" target="YGld60m3BobG-WvfS-7C-213" edge="1">
          <mxGeometry relative="1" as="geometry" />
        </mxCell>
        <mxCell id="YGld60m3BobG-WvfS-7C-212" value="printf(&quot;%c&quot;, &lt;br&gt;ptr-&amp;gt;c);" style="shape=parallelogram;perimeter=parallelogramPerimeter;whiteSpace=wrap;html=1;fixedSize=1;rounded=0;strokeColor=default;align=center;verticalAlign=middle;fontFamily=Lucida Console;fontSize=13;fontColor=default;labelBackgroundColor=none;fillColor=default;" parent="1" vertex="1">
          <mxGeometry x="640" y="1690" width="160" height="80" as="geometry" />
        </mxCell>
        <mxCell id="YGld60m3BobG-WvfS-7C-222" style="edgeStyle=orthogonalEdgeStyle;shape=connector;rounded=0;orthogonalLoop=1;jettySize=auto;html=1;exitX=1;exitY=0.5;exitDx=0;exitDy=0;entryX=0;entryY=0.75;entryDx=0;entryDy=0;strokeColor=default;align=center;verticalAlign=middle;fontFamily=Lucida Console;fontSize=13;fontColor=default;labelBackgroundColor=none;startFill=0;endArrow=classic;endFill=1;" parent="1" source="YGld60m3BobG-WvfS-7C-213" target="YGld60m3BobG-WvfS-7C-214" edge="1">
          <mxGeometry relative="1" as="geometry">
            <Array as="points">
              <mxPoint x="810" y="1840" />
              <mxPoint x="810" y="1529" />
            </Array>
          </mxGeometry>
        </mxCell>
        <mxCell id="YGld60m3BobG-WvfS-7C-224" style="edgeStyle=orthogonalEdgeStyle;shape=connector;rounded=0;orthogonalLoop=1;jettySize=auto;html=1;exitX=0.5;exitY=1;exitDx=0;exitDy=0;entryX=0;entryY=0.5;entryDx=0;entryDy=0;strokeColor=default;align=center;verticalAlign=middle;fontFamily=Lucida Console;fontSize=13;fontColor=default;labelBackgroundColor=none;startFill=0;endArrow=classic;endFill=1;" parent="1" source="YGld60m3BobG-WvfS-7C-213" target="YGld60m3BobG-WvfS-7C-210" edge="1">
          <mxGeometry relative="1" as="geometry">
            <Array as="points">
              <mxPoint x="720" y="1890" />
              <mxPoint x="630" y="1890" />
              <mxPoint x="630" y="1510" />
            </Array>
          </mxGeometry>
        </mxCell>
        <mxCell id="YGld60m3BobG-WvfS-7C-213" value="ptr == s.tail" style="rhombus;whiteSpace=wrap;html=1;rounded=0;strokeColor=default;align=center;verticalAlign=middle;fontFamily=Lucida Console;fontSize=13;fontColor=default;labelBackgroundColor=none;fillColor=default;" parent="1" vertex="1">
          <mxGeometry x="640" y="1800" width="160" height="80" as="geometry" />
        </mxCell>
        <mxCell id="YGld60m3BobG-WvfS-7C-225" style="edgeStyle=orthogonalEdgeStyle;shape=connector;rounded=0;orthogonalLoop=1;jettySize=auto;html=1;exitX=0.5;exitY=1;exitDx=0;exitDy=0;entryX=0.5;entryY=0;entryDx=0;entryDy=0;strokeColor=default;align=center;verticalAlign=middle;fontFamily=Lucida Console;fontSize=13;fontColor=default;labelBackgroundColor=none;startFill=0;endArrow=none;" parent="1" source="YGld60m3BobG-WvfS-7C-214" target="YGld60m3BobG-WvfS-7C-215" edge="1">
          <mxGeometry relative="1" as="geometry" />
        </mxCell>
        <mxCell id="YGld60m3BobG-WvfS-7C-214" value="printf(&quot;\&quot;\n&quot;);" style="shape=parallelogram;perimeter=parallelogramPerimeter;whiteSpace=wrap;html=1;fixedSize=1;rounded=0;strokeColor=default;align=center;verticalAlign=middle;fontFamily=Lucida Console;fontSize=13;fontColor=default;labelBackgroundColor=none;fillColor=default;" parent="1" vertex="1">
          <mxGeometry x="830" y="1470" width="160" height="80" as="geometry" />
        </mxCell>
        <mxCell id="YGld60m3BobG-WvfS-7C-215" value="&lt;font style=&quot;font-size: 18px;&quot;&gt;Конец&lt;/font&gt;" style="rounded=1;whiteSpace=wrap;html=1;strokeColor=default;align=center;verticalAlign=middle;fontFamily=Lucida Console;fontSize=13;fontColor=default;labelBackgroundColor=none;fillColor=default;arcSize=50;" parent="1" vertex="1">
          <mxGeometry x="830" y="1580" width="160" height="80" as="geometry" />
        </mxCell>
        <mxCell id="YGld60m3BobG-WvfS-7C-226" value="да" style="text;html=1;align=center;verticalAlign=middle;resizable=0;points=[];autosize=1;strokeColor=none;fillColor=none;fontFamily=Lucida Console;fontSize=13;fontColor=default;labelBackgroundColor=none;" parent="1" vertex="1">
          <mxGeometry x="770" y="1808" width="40" height="30" as="geometry" />
        </mxCell>
        <mxCell id="YGld60m3BobG-WvfS-7C-227" value="нет" style="text;html=1;align=center;verticalAlign=middle;resizable=0;points=[];autosize=1;strokeColor=none;fillColor=none;fontFamily=Lucida Console;fontSize=13;fontColor=default;labelBackgroundColor=none;" parent="1" vertex="1">
          <mxGeometry x="660" y="1858" width="50" height="30" as="geometry" />
        </mxCell>
        <mxCell id="YGld60m3BobG-WvfS-7C-235" style="edgeStyle=orthogonalEdgeStyle;shape=connector;rounded=0;orthogonalLoop=1;jettySize=auto;html=1;exitX=0.5;exitY=1;exitDx=0;exitDy=0;entryX=0.5;entryY=0;entryDx=0;entryDy=0;strokeColor=default;align=center;verticalAlign=middle;fontFamily=Lucida Console;fontSize=13;fontColor=default;labelBackgroundColor=none;startFill=0;endArrow=none;" parent="1" source="YGld60m3BobG-WvfS-7C-228" target="YGld60m3BobG-WvfS-7C-229" edge="1">
          <mxGeometry relative="1" as="geometry" />
        </mxCell>
        <mxCell id="YGld60m3BobG-WvfS-7C-228" value="Начало void free_string(String *s)" style="rounded=1;whiteSpace=wrap;html=1;strokeColor=default;align=center;verticalAlign=middle;fontFamily=Lucida Console;fontSize=13;fontColor=default;labelBackgroundColor=none;fillColor=default;arcSize=50;" parent="1" vertex="1">
          <mxGeometry x="1040" y="1140" width="160" height="80" as="geometry" />
        </mxCell>
        <mxCell id="YGld60m3BobG-WvfS-7C-236" style="edgeStyle=orthogonalEdgeStyle;shape=connector;rounded=0;orthogonalLoop=1;jettySize=auto;html=1;exitX=0.5;exitY=1;exitDx=0;exitDy=0;entryX=0.5;entryY=0;entryDx=0;entryDy=0;strokeColor=default;align=center;verticalAlign=middle;fontFamily=Lucida Console;fontSize=13;fontColor=default;labelBackgroundColor=none;startFill=0;endArrow=none;" parent="1" source="YGld60m3BobG-WvfS-7C-229" target="YGld60m3BobG-WvfS-7C-230" edge="1">
          <mxGeometry relative="1" as="geometry" />
        </mxCell>
        <mxCell id="YGld60m3BobG-WvfS-7C-229" value="CharNode *next;" style="rounded=0;whiteSpace=wrap;html=1;strokeColor=default;align=center;verticalAlign=middle;fontFamily=Lucida Console;fontSize=13;fontColor=default;labelBackgroundColor=none;fillColor=default;" parent="1" vertex="1">
          <mxGeometry x="1040" y="1250" width="160" height="80" as="geometry" />
        </mxCell>
        <mxCell id="YGld60m3BobG-WvfS-7C-237" style="edgeStyle=orthogonalEdgeStyle;shape=connector;rounded=0;orthogonalLoop=1;jettySize=auto;html=1;exitX=0.5;exitY=1;exitDx=0;exitDy=0;entryX=0.5;entryY=0;entryDx=0;entryDy=0;strokeColor=default;align=center;verticalAlign=middle;fontFamily=Lucida Console;fontSize=13;fontColor=default;labelBackgroundColor=none;startFill=0;endArrow=none;" parent="1" source="YGld60m3BobG-WvfS-7C-230" target="YGld60m3BobG-WvfS-7C-231" edge="1">
          <mxGeometry relative="1" as="geometry" />
        </mxCell>
        <mxCell id="YGld60m3BobG-WvfS-7C-242" style="edgeStyle=orthogonalEdgeStyle;shape=connector;rounded=0;orthogonalLoop=1;jettySize=auto;html=1;exitX=1;exitY=0.5;exitDx=0;exitDy=0;entryX=0;entryY=0.5;entryDx=0;entryDy=0;strokeColor=default;align=center;verticalAlign=middle;fontFamily=Lucida Console;fontSize=13;fontColor=default;labelBackgroundColor=none;startFill=0;endArrow=none;" parent="1" source="YGld60m3BobG-WvfS-7C-230" target="YGld60m3BobG-WvfS-7C-233" edge="1">
          <mxGeometry relative="1" as="geometry" />
        </mxCell>
        <mxCell id="YGld60m3BobG-WvfS-7C-230" value="CharNode *ptr = &lt;br&gt;s-&amp;gt;head;&lt;br&gt;ptr != NULL;&lt;br&gt;ptr = next" style="shape=hexagon;perimeter=hexagonPerimeter2;whiteSpace=wrap;html=1;fixedSize=1;rounded=0;strokeColor=default;align=center;verticalAlign=middle;fontFamily=Lucida Console;fontSize=13;fontColor=default;labelBackgroundColor=none;fillColor=default;" parent="1" vertex="1">
          <mxGeometry x="1040" y="1360" width="160" height="80" as="geometry" />
        </mxCell>
        <mxCell id="YGld60m3BobG-WvfS-7C-238" style="edgeStyle=orthogonalEdgeStyle;shape=connector;rounded=0;orthogonalLoop=1;jettySize=auto;html=1;exitX=0.5;exitY=1;exitDx=0;exitDy=0;entryX=0.5;entryY=0;entryDx=0;entryDy=0;strokeColor=default;align=center;verticalAlign=middle;fontFamily=Lucida Console;fontSize=13;fontColor=default;labelBackgroundColor=none;startFill=0;endArrow=none;" parent="1" source="YGld60m3BobG-WvfS-7C-231" target="YGld60m3BobG-WvfS-7C-232" edge="1">
          <mxGeometry relative="1" as="geometry" />
        </mxCell>
        <mxCell id="YGld60m3BobG-WvfS-7C-231" value="next = ptr-&amp;gt;next;&lt;br&gt;free(ptr);" style="rounded=0;whiteSpace=wrap;html=1;strokeColor=default;align=center;verticalAlign=middle;fontFamily=Lucida Console;fontSize=13;fontColor=default;labelBackgroundColor=none;fillColor=default;" parent="1" vertex="1">
          <mxGeometry x="1040" y="1470" width="160" height="80" as="geometry" />
        </mxCell>
        <mxCell id="YGld60m3BobG-WvfS-7C-239" style="edgeStyle=orthogonalEdgeStyle;shape=connector;rounded=0;orthogonalLoop=1;jettySize=auto;html=1;exitX=0;exitY=0.5;exitDx=0;exitDy=0;entryX=0;entryY=0.5;entryDx=0;entryDy=0;strokeColor=default;align=center;verticalAlign=middle;fontFamily=Lucida Console;fontSize=13;fontColor=default;labelBackgroundColor=none;startFill=0;endArrow=classic;endFill=1;" parent="1" source="YGld60m3BobG-WvfS-7C-232" target="YGld60m3BobG-WvfS-7C-230" edge="1">
          <mxGeometry relative="1" as="geometry">
            <Array as="points">
              <mxPoint x="1030" y="1620" />
              <mxPoint x="1030" y="1400" />
            </Array>
          </mxGeometry>
        </mxCell>
        <mxCell id="YGld60m3BobG-WvfS-7C-241" style="edgeStyle=orthogonalEdgeStyle;shape=connector;rounded=0;orthogonalLoop=1;jettySize=auto;html=1;exitX=0.5;exitY=1;exitDx=0;exitDy=0;entryX=0;entryY=0.75;entryDx=0;entryDy=0;strokeColor=default;align=center;verticalAlign=middle;fontFamily=Lucida Console;fontSize=13;fontColor=default;labelBackgroundColor=none;startFill=0;endArrow=classic;endFill=1;" parent="1" source="YGld60m3BobG-WvfS-7C-232" target="YGld60m3BobG-WvfS-7C-233" edge="1">
          <mxGeometry relative="1" as="geometry">
            <Array as="points">
              <mxPoint x="1120" y="1670" />
              <mxPoint x="1220" y="1670" />
              <mxPoint x="1220" y="1420" />
            </Array>
          </mxGeometry>
        </mxCell>
        <mxCell id="YGld60m3BobG-WvfS-7C-232" value="ptr == s-&amp;gt;tail" style="rhombus;whiteSpace=wrap;html=1;rounded=0;strokeColor=default;align=center;verticalAlign=middle;fontFamily=Lucida Console;fontSize=13;fontColor=default;labelBackgroundColor=none;fillColor=default;" parent="1" vertex="1">
          <mxGeometry x="1040" y="1580" width="160" height="80" as="geometry" />
        </mxCell>
        <mxCell id="YGld60m3BobG-WvfS-7C-244" style="edgeStyle=orthogonalEdgeStyle;shape=connector;rounded=0;orthogonalLoop=1;jettySize=auto;html=1;exitX=0.5;exitY=1;exitDx=0;exitDy=0;entryX=0.5;entryY=0;entryDx=0;entryDy=0;strokeColor=default;align=center;verticalAlign=middle;fontFamily=Lucida Console;fontSize=13;fontColor=default;labelBackgroundColor=none;startFill=0;endArrow=none;" parent="1" source="YGld60m3BobG-WvfS-7C-233" target="YGld60m3BobG-WvfS-7C-234" edge="1">
          <mxGeometry relative="1" as="geometry" />
        </mxCell>
        <mxCell id="YGld60m3BobG-WvfS-7C-233" value="free(s);" style="rounded=0;whiteSpace=wrap;html=1;strokeColor=default;align=center;verticalAlign=middle;fontFamily=Lucida Console;fontSize=13;fontColor=default;labelBackgroundColor=none;fillColor=default;" parent="1" vertex="1">
          <mxGeometry x="1240" y="1360" width="160" height="80" as="geometry" />
        </mxCell>
        <mxCell id="YGld60m3BobG-WvfS-7C-234" value="&lt;font style=&quot;font-size: 18px;&quot;&gt;Конец&lt;/font&gt;" style="rounded=1;whiteSpace=wrap;html=1;strokeColor=default;align=center;verticalAlign=middle;fontFamily=Lucida Console;fontSize=13;fontColor=default;labelBackgroundColor=none;fillColor=default;arcSize=50;" parent="1" vertex="1">
          <mxGeometry x="1240" y="1470" width="160" height="80" as="geometry" />
        </mxCell>
        <mxCell id="YGld60m3BobG-WvfS-7C-240" value="да" style="text;html=1;align=center;verticalAlign=middle;resizable=0;points=[];autosize=1;strokeColor=none;fillColor=none;fontFamily=Lucida Console;fontSize=13;fontColor=default;labelBackgroundColor=none;" parent="1" vertex="1">
          <mxGeometry x="1030" y="1590" width="40" height="30" as="geometry" />
        </mxCell>
        <mxCell id="YGld60m3BobG-WvfS-7C-243" value="нет" style="text;html=1;align=center;verticalAlign=middle;resizable=0;points=[];autosize=1;strokeColor=none;fillColor=none;fontFamily=Lucida Console;fontSize=13;fontColor=default;labelBackgroundColor=none;" parent="1" vertex="1">
          <mxGeometry x="1120" y="1648" width="50" height="30" as="geometry" />
        </mxCell>
        <mxCell id="MOXKfGCyuzbZlonc4yIH-4" style="edgeStyle=orthogonalEdgeStyle;rounded=0;orthogonalLoop=1;jettySize=auto;html=1;exitX=0.5;exitY=1;exitDx=0;exitDy=0;entryX=0.5;entryY=0;entryDx=0;entryDy=0;fontFamily=Lucida Console;fontSize=12;fontColor=default;endArrow=none;startFill=0;" edge="1" parent="1" source="YGld60m3BobG-WvfS-7C-245" target="MOXKfGCyuzbZlonc4yIH-1">
          <mxGeometry relative="1" as="geometry" />
        </mxCell>
        <mxCell id="YGld60m3BobG-WvfS-7C-245" value="&lt;font style=&quot;font-size: 12px;&quot;&gt;Начало&amp;nbsp;void insert_word(String *s, String *word, CharNode *new_prev)&lt;/font&gt;" style="rounded=1;whiteSpace=wrap;html=1;strokeColor=default;align=center;verticalAlign=middle;fontFamily=Lucida Console;fontSize=13;fontColor=default;labelBackgroundColor=none;fillColor=default;arcSize=50;" parent="1" vertex="1">
          <mxGeometry x="1440" y="1140" width="160" height="80" as="geometry" />
        </mxCell>
        <mxCell id="MOXKfGCyuzbZlonc4yIH-3" style="edgeStyle=orthogonalEdgeStyle;rounded=0;orthogonalLoop=1;jettySize=auto;html=1;exitX=1;exitY=0.5;exitDx=0;exitDy=0;entryX=0;entryY=0.5;entryDx=0;entryDy=0;fontFamily=Lucida Console;fontSize=12;fontColor=default;endArrow=none;startFill=0;" edge="1" parent="1" source="MOXKfGCyuzbZlonc4yIH-1" target="MOXKfGCyuzbZlonc4yIH-2">
          <mxGeometry relative="1" as="geometry" />
        </mxCell>
        <mxCell id="MOXKfGCyuzbZlonc4yIH-7" style="edgeStyle=orthogonalEdgeStyle;shape=connector;rounded=0;orthogonalLoop=1;jettySize=auto;html=1;exitX=0.5;exitY=1;exitDx=0;exitDy=0;entryX=0.5;entryY=0;entryDx=0;entryDy=0;strokeColor=default;align=center;verticalAlign=middle;fontFamily=Lucida Console;fontSize=12;fontColor=default;labelBackgroundColor=none;startFill=0;endArrow=none;" edge="1" parent="1" source="MOXKfGCyuzbZlonc4yIH-1" target="MOXKfGCyuzbZlonc4yIH-5">
          <mxGeometry relative="1" as="geometry" />
        </mxCell>
        <mxCell id="MOXKfGCyuzbZlonc4yIH-1" value="&lt;font&gt;!word-&amp;gt;head-&amp;gt;prev&lt;/font&gt;" style="rhombus;whiteSpace=wrap;html=1;fontFamily=Lucida Console;" vertex="1" parent="1">
          <mxGeometry x="1440" y="1250" width="160" height="80" as="geometry" />
        </mxCell>
        <mxCell id="MOXKfGCyuzbZlonc4yIH-2" value="&lt;font style=&quot;font-size: 18px;&quot;&gt;Конец&lt;/font&gt;" style="rounded=1;whiteSpace=wrap;html=1;strokeColor=default;align=center;verticalAlign=middle;fontFamily=Lucida Console;fontSize=12;fontColor=default;fillColor=default;arcSize=50;" vertex="1" parent="1">
          <mxGeometry x="1640" y="1250" width="160" height="80" as="geometry" />
        </mxCell>
        <mxCell id="MOXKfGCyuzbZlonc4yIH-17" style="edgeStyle=orthogonalEdgeStyle;shape=connector;rounded=0;orthogonalLoop=1;jettySize=auto;html=1;exitX=0.5;exitY=1;exitDx=0;exitDy=0;entryX=0.5;entryY=0;entryDx=0;entryDy=0;strokeColor=default;align=center;verticalAlign=middle;fontFamily=Lucida Console;fontSize=12;fontColor=default;labelBackgroundColor=none;startFill=0;endArrow=none;" edge="1" parent="1" source="MOXKfGCyuzbZlonc4yIH-5" target="MOXKfGCyuzbZlonc4yIH-8">
          <mxGeometry relative="1" as="geometry" />
        </mxCell>
        <mxCell id="MOXKfGCyuzbZlonc4yIH-5" value="word-&amp;gt;head-&amp;gt;prev-&amp;gt;&lt;br&gt;next = word-&amp;gt;tail-&amp;gt;next;" style="rounded=0;whiteSpace=wrap;html=1;strokeColor=default;align=center;verticalAlign=middle;fontFamily=Lucida Console;fontSize=12;fontColor=default;labelBackgroundColor=none;fillColor=default;" vertex="1" parent="1">
          <mxGeometry x="1440" y="1360" width="160" height="80" as="geometry" />
        </mxCell>
        <mxCell id="MOXKfGCyuzbZlonc4yIH-18" style="edgeStyle=orthogonalEdgeStyle;shape=connector;rounded=0;orthogonalLoop=1;jettySize=auto;html=1;exitX=1;exitY=0.5;exitDx=0;exitDy=0;entryX=0;entryY=0.5;entryDx=0;entryDy=0;strokeColor=default;align=center;verticalAlign=middle;fontFamily=Lucida Console;fontSize=12;fontColor=default;labelBackgroundColor=none;startFill=0;endArrow=none;" edge="1" parent="1" source="MOXKfGCyuzbZlonc4yIH-8" target="MOXKfGCyuzbZlonc4yIH-9">
          <mxGeometry relative="1" as="geometry" />
        </mxCell>
        <mxCell id="MOXKfGCyuzbZlonc4yIH-19" style="edgeStyle=orthogonalEdgeStyle;shape=connector;rounded=0;orthogonalLoop=1;jettySize=auto;html=1;exitX=0.5;exitY=1;exitDx=0;exitDy=0;entryX=0.5;entryY=0;entryDx=0;entryDy=0;strokeColor=default;align=center;verticalAlign=middle;fontFamily=Lucida Console;fontSize=12;fontColor=default;labelBackgroundColor=none;startFill=0;endArrow=none;" edge="1" parent="1" source="MOXKfGCyuzbZlonc4yIH-8" target="MOXKfGCyuzbZlonc4yIH-10">
          <mxGeometry relative="1" as="geometry" />
        </mxCell>
        <mxCell id="MOXKfGCyuzbZlonc4yIH-8" value="word-&amp;gt;tail-&amp;gt;next" style="rhombus;whiteSpace=wrap;html=1;rounded=0;strokeColor=default;align=center;verticalAlign=middle;fontFamily=Lucida Console;fontSize=12;fontColor=default;labelBackgroundColor=none;fillColor=default;" vertex="1" parent="1">
          <mxGeometry x="1440" y="1470" width="160" height="80" as="geometry" />
        </mxCell>
        <mxCell id="MOXKfGCyuzbZlonc4yIH-20" style="edgeStyle=orthogonalEdgeStyle;shape=connector;rounded=0;orthogonalLoop=1;jettySize=auto;html=1;exitX=0.5;exitY=1;exitDx=0;exitDy=0;strokeColor=default;align=center;verticalAlign=middle;fontFamily=Lucida Console;fontSize=12;fontColor=default;labelBackgroundColor=none;startFill=0;endArrow=classic;endFill=1;" edge="1" parent="1" source="MOXKfGCyuzbZlonc4yIH-9">
          <mxGeometry relative="1" as="geometry">
            <mxPoint x="1520" y="1560" as="targetPoint" />
            <Array as="points">
              <mxPoint x="1720" y="1560" />
              <mxPoint x="1520" y="1560" />
            </Array>
          </mxGeometry>
        </mxCell>
        <mxCell id="MOXKfGCyuzbZlonc4yIH-9" value="word-&amp;gt;tail-&amp;gt;next-&amp;gt;prev = word-&amp;gt;head-&amp;gt;prev;" style="rounded=0;whiteSpace=wrap;html=1;strokeColor=default;align=center;verticalAlign=middle;fontFamily=Lucida Console;fontSize=12;fontColor=default;labelBackgroundColor=none;fillColor=default;" vertex="1" parent="1">
          <mxGeometry x="1640" y="1470" width="160" height="80" as="geometry" />
        </mxCell>
        <mxCell id="MOXKfGCyuzbZlonc4yIH-21" style="edgeStyle=orthogonalEdgeStyle;shape=connector;rounded=0;orthogonalLoop=1;jettySize=auto;html=1;exitX=1;exitY=0.5;exitDx=0;exitDy=0;entryX=0;entryY=0.5;entryDx=0;entryDy=0;strokeColor=default;align=center;verticalAlign=middle;fontFamily=Lucida Console;fontSize=12;fontColor=default;labelBackgroundColor=none;startFill=0;endArrow=none;" edge="1" parent="1" source="MOXKfGCyuzbZlonc4yIH-10" target="MOXKfGCyuzbZlonc4yIH-11">
          <mxGeometry relative="1" as="geometry" />
        </mxCell>
        <mxCell id="MOXKfGCyuzbZlonc4yIH-22" style="edgeStyle=orthogonalEdgeStyle;shape=connector;rounded=0;orthogonalLoop=1;jettySize=auto;html=1;exitX=0.5;exitY=1;exitDx=0;exitDy=0;entryX=0.5;entryY=0;entryDx=0;entryDy=0;strokeColor=default;align=center;verticalAlign=middle;fontFamily=Lucida Console;fontSize=12;fontColor=default;labelBackgroundColor=none;startFill=0;endArrow=none;" edge="1" parent="1" source="MOXKfGCyuzbZlonc4yIH-10" target="MOXKfGCyuzbZlonc4yIH-12">
          <mxGeometry relative="1" as="geometry" />
        </mxCell>
        <mxCell id="MOXKfGCyuzbZlonc4yIH-10" value="word-&amp;gt;tail == &lt;br&gt;s-&amp;gt;tail" style="rhombus;whiteSpace=wrap;html=1;rounded=0;strokeColor=default;align=center;verticalAlign=middle;fontFamily=Lucida Console;fontSize=12;fontColor=default;labelBackgroundColor=none;fillColor=default;" vertex="1" parent="1">
          <mxGeometry x="1440" y="1580" width="160" height="80" as="geometry" />
        </mxCell>
        <mxCell id="MOXKfGCyuzbZlonc4yIH-23" style="edgeStyle=orthogonalEdgeStyle;shape=connector;rounded=0;orthogonalLoop=1;jettySize=auto;html=1;exitX=0.5;exitY=1;exitDx=0;exitDy=0;strokeColor=default;align=center;verticalAlign=middle;fontFamily=Lucida Console;fontSize=12;fontColor=default;labelBackgroundColor=none;startFill=0;endArrow=classic;endFill=1;" edge="1" parent="1" source="MOXKfGCyuzbZlonc4yIH-11">
          <mxGeometry relative="1" as="geometry">
            <mxPoint x="1520" y="1670" as="targetPoint" />
            <Array as="points">
              <mxPoint x="1720" y="1670" />
              <mxPoint x="1520" y="1670" />
            </Array>
          </mxGeometry>
        </mxCell>
        <mxCell id="MOXKfGCyuzbZlonc4yIH-11" value="s-&amp;gt;tail = word-&amp;gt;&lt;br&gt;head-&amp;gt;prev;" style="rounded=0;whiteSpace=wrap;html=1;strokeColor=default;align=center;verticalAlign=middle;fontFamily=Lucida Console;fontSize=12;fontColor=default;labelBackgroundColor=none;fillColor=default;" vertex="1" parent="1">
          <mxGeometry x="1640" y="1580" width="160" height="80" as="geometry" />
        </mxCell>
        <mxCell id="MOXKfGCyuzbZlonc4yIH-24" style="edgeStyle=orthogonalEdgeStyle;shape=connector;rounded=0;orthogonalLoop=1;jettySize=auto;html=1;exitX=1;exitY=0.5;exitDx=0;exitDy=0;entryX=0;entryY=0.5;entryDx=0;entryDy=0;strokeColor=default;align=center;verticalAlign=middle;fontFamily=Lucida Console;fontSize=12;fontColor=default;labelBackgroundColor=none;startFill=0;endArrow=none;" edge="1" parent="1" source="MOXKfGCyuzbZlonc4yIH-12" target="MOXKfGCyuzbZlonc4yIH-13">
          <mxGeometry relative="1" as="geometry" />
        </mxCell>
        <mxCell id="MOXKfGCyuzbZlonc4yIH-26" style="edgeStyle=orthogonalEdgeStyle;shape=connector;rounded=0;orthogonalLoop=1;jettySize=auto;html=1;exitX=0.5;exitY=1;exitDx=0;exitDy=0;entryX=0.5;entryY=0;entryDx=0;entryDy=0;strokeColor=default;align=center;verticalAlign=middle;fontFamily=Lucida Console;fontSize=12;fontColor=default;labelBackgroundColor=none;startFill=0;endArrow=none;" edge="1" parent="1" source="MOXKfGCyuzbZlonc4yIH-12" target="MOXKfGCyuzbZlonc4yIH-15">
          <mxGeometry relative="1" as="geometry" />
        </mxCell>
        <mxCell id="MOXKfGCyuzbZlonc4yIH-12" value="new_prev" style="rhombus;whiteSpace=wrap;html=1;rounded=0;strokeColor=default;align=center;verticalAlign=middle;fontFamily=Lucida Console;fontSize=12;fontColor=default;labelBackgroundColor=none;fillColor=default;" vertex="1" parent="1">
          <mxGeometry x="1440" y="1690" width="160" height="80" as="geometry" />
        </mxCell>
        <mxCell id="MOXKfGCyuzbZlonc4yIH-25" style="edgeStyle=orthogonalEdgeStyle;shape=connector;rounded=0;orthogonalLoop=1;jettySize=auto;html=1;exitX=0.5;exitY=1;exitDx=0;exitDy=0;entryX=0.5;entryY=0;entryDx=0;entryDy=0;strokeColor=default;align=center;verticalAlign=middle;fontFamily=Lucida Console;fontSize=12;fontColor=default;labelBackgroundColor=none;startFill=0;endArrow=none;" edge="1" parent="1" source="MOXKfGCyuzbZlonc4yIH-13" target="MOXKfGCyuzbZlonc4yIH-14">
          <mxGeometry relative="1" as="geometry" />
        </mxCell>
        <mxCell id="MOXKfGCyuzbZlonc4yIH-13" value="&lt;div&gt;word-&amp;gt;head-&amp;gt;prev = new_prev;&lt;/div&gt;&lt;div&gt;&lt;span style=&quot;background-color: transparent; color: light-dark(rgb(0, 0, 0), rgb(255, 255, 255));&quot;&gt;new_prev-&amp;gt;next-&amp;gt;prev = word-&amp;gt;tail;&lt;/span&gt;&lt;/div&gt;" style="rounded=0;whiteSpace=wrap;html=1;strokeColor=default;align=center;verticalAlign=middle;fontFamily=Lucida Console;fontSize=12;fontColor=default;labelBackgroundColor=none;fillColor=default;" vertex="1" parent="1">
          <mxGeometry x="1640" y="1690" width="160" height="80" as="geometry" />
        </mxCell>
        <mxCell id="MOXKfGCyuzbZlonc4yIH-27" style="edgeStyle=orthogonalEdgeStyle;shape=connector;rounded=0;orthogonalLoop=1;jettySize=auto;html=1;exitX=0.5;exitY=1;exitDx=0;exitDy=0;entryX=1;entryY=0.5;entryDx=0;entryDy=0;strokeColor=default;align=center;verticalAlign=middle;fontFamily=Lucida Console;fontSize=12;fontColor=default;labelBackgroundColor=none;startFill=0;endArrow=classic;endFill=1;" edge="1" parent="1" source="MOXKfGCyuzbZlonc4yIH-14" target="MOXKfGCyuzbZlonc4yIH-16">
          <mxGeometry relative="1" as="geometry" />
        </mxCell>
        <mxCell id="MOXKfGCyuzbZlonc4yIH-14" value="&lt;div&gt;word-&amp;gt;tail-&amp;gt;next = new_prev-&amp;gt;next;&lt;/div&gt;&lt;div&gt;&lt;span style=&quot;background-color: transparent; color: light-dark(rgb(0, 0, 0), rgb(255, 255, 255));&quot;&gt;new_prev-&amp;gt;next = word-&amp;gt;head;&lt;/span&gt;&lt;/div&gt;" style="rounded=0;whiteSpace=wrap;html=1;strokeColor=default;align=center;verticalAlign=middle;fontFamily=Lucida Console;fontSize=12;fontColor=default;labelBackgroundColor=none;fillColor=default;" vertex="1" parent="1">
          <mxGeometry x="1640" y="1800" width="160" height="80" as="geometry" />
        </mxCell>
        <mxCell id="MOXKfGCyuzbZlonc4yIH-28" style="edgeStyle=orthogonalEdgeStyle;shape=connector;rounded=0;orthogonalLoop=1;jettySize=auto;html=1;exitX=0.5;exitY=1;exitDx=0;exitDy=0;entryX=0.5;entryY=0;entryDx=0;entryDy=0;strokeColor=default;align=center;verticalAlign=middle;fontFamily=Lucida Console;fontSize=12;fontColor=default;labelBackgroundColor=none;startFill=0;endArrow=none;" edge="1" parent="1" source="MOXKfGCyuzbZlonc4yIH-15" target="MOXKfGCyuzbZlonc4yIH-16">
          <mxGeometry relative="1" as="geometry" />
        </mxCell>
        <mxCell id="MOXKfGCyuzbZlonc4yIH-15" value="&lt;div&gt;s-&amp;gt;head-&amp;gt;prev = word-&amp;gt;tail;&lt;/div&gt;&lt;div&gt;word-&amp;gt;tail-&amp;gt;next = s-&amp;gt;head;&lt;/div&gt;&lt;div&gt;s-&amp;gt;head = word-&amp;gt;head;&lt;/div&gt;" style="rounded=0;whiteSpace=wrap;html=1;strokeColor=default;align=center;verticalAlign=middle;fontFamily=Lucida Console;fontSize=12;fontColor=default;labelBackgroundColor=none;fillColor=default;" vertex="1" parent="1">
          <mxGeometry x="1440" y="1800" width="160" height="80" as="geometry" />
        </mxCell>
        <mxCell id="MOXKfGCyuzbZlonc4yIH-16" value="&lt;font style=&quot;font-size: 18px;&quot;&gt;Конец&lt;/font&gt;" style="rounded=1;whiteSpace=wrap;html=1;strokeColor=default;align=center;verticalAlign=middle;fontFamily=Lucida Console;fontSize=12;fontColor=default;labelBackgroundColor=none;fillColor=default;arcSize=50;" vertex="1" parent="1">
          <mxGeometry x="1440" y="1910" width="160" height="80" as="geometry" />
        </mxCell>
        <mxCell id="MOXKfGCyuzbZlonc4yIH-29" value="да" style="text;html=1;align=center;verticalAlign=middle;resizable=0;points=[];autosize=1;strokeColor=none;fillColor=none;fontFamily=Lucida Console;fontSize=12;fontColor=default;labelBackgroundColor=none;" vertex="1" parent="1">
          <mxGeometry x="1590" y="1268" width="40" height="30" as="geometry" />
        </mxCell>
        <mxCell id="MOXKfGCyuzbZlonc4yIH-30" value="нет" style="text;html=1;align=center;verticalAlign=middle;resizable=0;points=[];autosize=1;strokeColor=none;fillColor=none;fontFamily=Lucida Console;fontSize=12;fontColor=default;labelBackgroundColor=none;" vertex="1" parent="1">
          <mxGeometry x="1475" y="1318" width="50" height="30" as="geometry" />
        </mxCell>
        <mxCell id="MOXKfGCyuzbZlonc4yIH-31" value="да" style="text;html=1;align=center;verticalAlign=middle;resizable=0;points=[];autosize=1;strokeColor=none;fillColor=none;fontFamily=Lucida Console;fontSize=12;fontColor=default;labelBackgroundColor=none;" vertex="1" parent="1">
          <mxGeometry x="1590" y="1490" width="40" height="30" as="geometry" />
        </mxCell>
        <mxCell id="MOXKfGCyuzbZlonc4yIH-32" value="нет" style="text;html=1;align=center;verticalAlign=middle;resizable=0;points=[];autosize=1;strokeColor=none;fillColor=none;fontFamily=Lucida Console;fontSize=12;fontColor=default;labelBackgroundColor=none;" vertex="1" parent="1">
          <mxGeometry x="1475" y="1540" width="50" height="30" as="geometry" />
        </mxCell>
        <mxCell id="MOXKfGCyuzbZlonc4yIH-33" value="да" style="text;html=1;align=center;verticalAlign=middle;resizable=0;points=[];autosize=1;strokeColor=none;fillColor=none;fontFamily=Lucida Console;fontSize=12;fontColor=default;labelBackgroundColor=none;" vertex="1" parent="1">
          <mxGeometry x="1590" y="1598" width="40" height="30" as="geometry" />
        </mxCell>
        <mxCell id="MOXKfGCyuzbZlonc4yIH-34" value="нет" style="text;html=1;align=center;verticalAlign=middle;resizable=0;points=[];autosize=1;strokeColor=none;fillColor=none;fontFamily=Lucida Console;fontSize=12;fontColor=default;labelBackgroundColor=none;" vertex="1" parent="1">
          <mxGeometry x="1475" y="1648" width="50" height="30" as="geometry" />
        </mxCell>
        <mxCell id="MOXKfGCyuzbZlonc4yIH-35" value="да" style="text;html=1;align=center;verticalAlign=middle;resizable=0;points=[];autosize=1;strokeColor=none;fillColor=none;fontFamily=Lucida Console;fontSize=12;fontColor=default;labelBackgroundColor=none;" vertex="1" parent="1">
          <mxGeometry x="1590" y="1708" width="40" height="30" as="geometry" />
        </mxCell>
        <mxCell id="MOXKfGCyuzbZlonc4yIH-36" value="нет" style="text;html=1;align=center;verticalAlign=middle;resizable=0;points=[];autosize=1;strokeColor=none;fillColor=none;fontFamily=Lucida Console;fontSize=12;fontColor=default;labelBackgroundColor=none;" vertex="1" parent="1">
          <mxGeometry x="1475" y="1758" width="50" height="30" as="geometry" />
        </mxCell>
        <mxCell id="MOXKfGCyuzbZlonc4yIH-37" value="A" style="text;html=1;align=center;verticalAlign=middle;resizable=0;points=[];autosize=1;strokeColor=none;fillColor=none;fontFamily=Lucida Console;fontSize=12;fontColor=default;labelBackgroundColor=none;" vertex="1" parent="1">
          <mxGeometry y="65" width="30" height="30" as="geometry" />
        </mxCell>
        <mxCell id="MOXKfGCyuzbZlonc4yIH-38" value="B" style="text;html=1;align=center;verticalAlign=middle;resizable=0;points=[];autosize=1;strokeColor=none;fillColor=none;fontFamily=Lucida Console;fontSize=12;fontColor=default;labelBackgroundColor=none;" vertex="1" parent="1">
          <mxGeometry y="175" width="30" height="30" as="geometry" />
        </mxCell>
        <mxCell id="MOXKfGCyuzbZlonc4yIH-39" value="C" style="text;html=1;align=center;verticalAlign=middle;resizable=0;points=[];autosize=1;strokeColor=none;fillColor=none;fontFamily=Lucida Console;fontSize=12;fontColor=default;labelBackgroundColor=none;" vertex="1" parent="1">
          <mxGeometry y="285" width="30" height="30" as="geometry" />
        </mxCell>
        <mxCell id="MOXKfGCyuzbZlonc4yIH-40" value="D" style="text;html=1;align=center;verticalAlign=middle;resizable=0;points=[];autosize=1;strokeColor=none;fillColor=none;fontFamily=Lucida Console;fontSize=12;fontColor=default;labelBackgroundColor=none;" vertex="1" parent="1">
          <mxGeometry y="395" width="30" height="30" as="geometry" />
        </mxCell>
        <mxCell id="MOXKfGCyuzbZlonc4yIH-41" value="E" style="text;html=1;align=center;verticalAlign=middle;resizable=0;points=[];autosize=1;strokeColor=none;fillColor=none;fontFamily=Lucida Console;fontSize=12;fontColor=default;labelBackgroundColor=none;" vertex="1" parent="1">
          <mxGeometry y="505" width="30" height="30" as="geometry" />
        </mxCell>
        <mxCell id="MOXKfGCyuzbZlonc4yIH-42" value="F" style="text;html=1;align=center;verticalAlign=middle;resizable=0;points=[];autosize=1;strokeColor=none;fillColor=none;fontFamily=Lucida Console;fontSize=12;fontColor=default;labelBackgroundColor=none;" vertex="1" parent="1">
          <mxGeometry y="615" width="30" height="30" as="geometry" />
        </mxCell>
        <mxCell id="MOXKfGCyuzbZlonc4yIH-43" value="G" style="text;html=1;align=center;verticalAlign=middle;resizable=0;points=[];autosize=1;strokeColor=none;fillColor=none;fontFamily=Lucida Console;fontSize=12;fontColor=default;labelBackgroundColor=none;" vertex="1" parent="1">
          <mxGeometry y="725" width="30" height="30" as="geometry" />
        </mxCell>
        <mxCell id="MOXKfGCyuzbZlonc4yIH-44" value="H" style="text;html=1;align=center;verticalAlign=middle;resizable=0;points=[];autosize=1;strokeColor=none;fillColor=none;fontFamily=Lucida Console;fontSize=12;fontColor=default;labelBackgroundColor=none;" vertex="1" parent="1">
          <mxGeometry y="830" width="30" height="30" as="geometry" />
        </mxCell>
        <mxCell id="MOXKfGCyuzbZlonc4yIH-45" value="I" style="text;html=1;align=center;verticalAlign=middle;resizable=0;points=[];autosize=1;strokeColor=none;fillColor=none;fontFamily=Lucida Console;fontSize=12;fontColor=default;labelBackgroundColor=none;" vertex="1" parent="1">
          <mxGeometry y="945" width="30" height="30" as="geometry" />
        </mxCell>
        <mxCell id="MOXKfGCyuzbZlonc4yIH-46" value="J" style="text;html=1;align=center;verticalAlign=middle;resizable=0;points=[];autosize=1;strokeColor=none;fillColor=none;fontFamily=Lucida Console;fontSize=12;fontColor=default;labelBackgroundColor=none;" vertex="1" parent="1">
          <mxGeometry y="1055" width="30" height="30" as="geometry" />
        </mxCell>
        <mxCell id="MOXKfGCyuzbZlonc4yIH-47" value="K" style="text;html=1;align=center;verticalAlign=middle;resizable=0;points=[];autosize=1;strokeColor=none;fillColor=none;fontFamily=Lucida Console;fontSize=12;fontColor=default;labelBackgroundColor=none;" vertex="1" parent="1">
          <mxGeometry y="1165" width="30" height="30" as="geometry" />
        </mxCell>
        <mxCell id="MOXKfGCyuzbZlonc4yIH-48" value="L" style="text;html=1;align=center;verticalAlign=middle;resizable=0;points=[];autosize=1;strokeColor=none;fillColor=none;fontFamily=Lucida Console;fontSize=12;fontColor=default;labelBackgroundColor=none;" vertex="1" parent="1">
          <mxGeometry y="1275" width="30" height="30" as="geometry" />
        </mxCell>
        <mxCell id="MOXKfGCyuzbZlonc4yIH-49" value="M" style="text;html=1;align=center;verticalAlign=middle;resizable=0;points=[];autosize=1;strokeColor=none;fillColor=none;fontFamily=Lucida Console;fontSize=12;fontColor=default;labelBackgroundColor=none;" vertex="1" parent="1">
          <mxGeometry y="1385" width="30" height="30" as="geometry" />
        </mxCell>
        <mxCell id="MOXKfGCyuzbZlonc4yIH-50" value="N" style="text;html=1;align=center;verticalAlign=middle;resizable=0;points=[];autosize=1;strokeColor=none;fillColor=none;fontFamily=Lucida Console;fontSize=12;fontColor=default;labelBackgroundColor=none;" vertex="1" parent="1">
          <mxGeometry y="1495" width="30" height="30" as="geometry" />
        </mxCell>
        <mxCell id="MOXKfGCyuzbZlonc4yIH-51" value="O" style="text;html=1;align=center;verticalAlign=middle;resizable=0;points=[];autosize=1;strokeColor=none;fillColor=none;fontFamily=Lucida Console;fontSize=12;fontColor=default;labelBackgroundColor=none;" vertex="1" parent="1">
          <mxGeometry y="1605" width="30" height="30" as="geometry" />
        </mxCell>
        <mxCell id="MOXKfGCyuzbZlonc4yIH-52" value="P" style="text;html=1;align=center;verticalAlign=middle;resizable=0;points=[];autosize=1;strokeColor=none;fillColor=none;fontFamily=Lucida Console;fontSize=12;fontColor=default;labelBackgroundColor=none;" vertex="1" parent="1">
          <mxGeometry y="1715" width="30" height="30" as="geometry" />
        </mxCell>
        <mxCell id="MOXKfGCyuzbZlonc4yIH-53" value="Q" style="text;html=1;align=center;verticalAlign=middle;resizable=0;points=[];autosize=1;strokeColor=none;fillColor=none;fontFamily=Lucida Console;fontSize=12;fontColor=default;labelBackgroundColor=none;" vertex="1" parent="1">
          <mxGeometry y="1825" width="30" height="30" as="geometry" />
        </mxCell>
        <mxCell id="MOXKfGCyuzbZlonc4yIH-54" value="R" style="text;html=1;align=center;verticalAlign=middle;resizable=0;points=[];autosize=1;strokeColor=none;fillColor=none;fontFamily=Lucida Console;fontSize=12;fontColor=default;labelBackgroundColor=none;" vertex="1" parent="1">
          <mxGeometry y="1935" width="30" height="30" as="geometry" />
        </mxCell>
        <mxCell id="MOXKfGCyuzbZlonc4yIH-55" value="1" style="text;html=1;align=center;verticalAlign=middle;resizable=0;points=[];autosize=1;strokeColor=none;fillColor=none;fontFamily=Lucida Console;fontSize=12;fontColor=default;labelBackgroundColor=none;" vertex="1" parent="1">
          <mxGeometry x="105" y="10" width="30" height="30" as="geometry" />
        </mxCell>
        <mxCell id="MOXKfGCyuzbZlonc4yIH-56" value="2" style="text;html=1;align=center;verticalAlign=middle;resizable=0;points=[];autosize=1;strokeColor=none;fillColor=none;fontFamily=Lucida Console;fontSize=12;fontColor=default;labelBackgroundColor=none;" vertex="1" parent="1">
          <mxGeometry x="305" y="10" width="30" height="30" as="geometry" />
        </mxCell>
        <mxCell id="MOXKfGCyuzbZlonc4yIH-57" value="3" style="text;html=1;align=center;verticalAlign=middle;resizable=0;points=[];autosize=1;strokeColor=none;fillColor=none;fontFamily=Lucida Console;fontSize=12;fontColor=default;labelBackgroundColor=none;" vertex="1" parent="1">
          <mxGeometry x="505" y="10" width="30" height="30" as="geometry" />
        </mxCell>
        <mxCell id="MOXKfGCyuzbZlonc4yIH-58" value="4" style="text;html=1;align=center;verticalAlign=middle;resizable=0;points=[];autosize=1;strokeColor=none;fillColor=none;fontFamily=Lucida Console;fontSize=12;fontColor=default;labelBackgroundColor=none;" vertex="1" parent="1">
          <mxGeometry x="705" y="10" width="30" height="30" as="geometry" />
        </mxCell>
        <mxCell id="MOXKfGCyuzbZlonc4yIH-59" value="5" style="text;html=1;align=center;verticalAlign=middle;resizable=0;points=[];autosize=1;strokeColor=none;fillColor=none;fontFamily=Lucida Console;fontSize=12;fontColor=default;labelBackgroundColor=none;" vertex="1" parent="1">
          <mxGeometry x="905" y="10" width="30" height="30" as="geometry" />
        </mxCell>
        <mxCell id="MOXKfGCyuzbZlonc4yIH-60" value="6" style="text;html=1;align=center;verticalAlign=middle;resizable=0;points=[];autosize=1;strokeColor=none;fillColor=none;fontFamily=Lucida Console;fontSize=12;fontColor=default;labelBackgroundColor=none;" vertex="1" parent="1">
          <mxGeometry x="1105" y="10" width="30" height="30" as="geometry" />
        </mxCell>
        <mxCell id="MOXKfGCyuzbZlonc4yIH-61" value="7" style="text;html=1;align=center;verticalAlign=middle;resizable=0;points=[];autosize=1;strokeColor=none;fillColor=none;fontFamily=Lucida Console;fontSize=12;fontColor=default;labelBackgroundColor=none;" vertex="1" parent="1">
          <mxGeometry x="1305" y="10" width="30" height="30" as="geometry" />
        </mxCell>
        <mxCell id="MOXKfGCyuzbZlonc4yIH-62" value="8" style="text;html=1;align=center;verticalAlign=middle;resizable=0;points=[];autosize=1;strokeColor=none;fillColor=none;fontFamily=Lucida Console;fontSize=12;fontColor=default;labelBackgroundColor=none;" vertex="1" parent="1">
          <mxGeometry x="1505" y="10" width="30" height="30" as="geometry" />
        </mxCell>
        <mxCell id="MOXKfGCyuzbZlonc4yIH-63" value="9" style="text;html=1;align=center;verticalAlign=middle;resizable=0;points=[];autosize=1;strokeColor=none;fillColor=none;fontFamily=Lucida Console;fontSize=12;fontColor=default;labelBackgroundColor=none;" vertex="1" parent="1">
          <mxGeometry x="1705" y="10" width="30" height="30" as="geometry" />
        </mxCell>
        <mxCell id="MOXKfGCyuzbZlonc4yIH-64" value="10" style="text;html=1;align=center;verticalAlign=middle;resizable=0;points=[];autosize=1;strokeColor=none;fillColor=none;fontFamily=Lucida Console;fontSize=12;fontColor=default;labelBackgroundColor=none;" vertex="1" parent="1">
          <mxGeometry x="1900" y="10" width="40" height="30" as="geometry" />
        </mxCell>
        <mxCell id="MOXKfGCyuzbZlonc4yIH-65" value="11" style="text;html=1;align=center;verticalAlign=middle;resizable=0;points=[];autosize=1;strokeColor=none;fillColor=none;fontFamily=Lucida Console;fontSize=12;fontColor=default;labelBackgroundColor=none;" vertex="1" parent="1">
          <mxGeometry x="2100" y="10" width="40" height="30" as="geometry" />
        </mxCell>
        <mxCell id="MOXKfGCyuzbZlonc4yIH-66" value="12" style="text;html=1;align=center;verticalAlign=middle;resizable=0;points=[];autosize=1;strokeColor=none;fillColor=none;fontFamily=Lucida Console;fontSize=12;fontColor=default;labelBackgroundColor=none;" vertex="1" parent="1">
          <mxGeometry x="2300" y="10" width="40" height="30" as="geometry" />
        </mxCell>
        <mxCell id="MOXKfGCyuzbZlonc4yIH-67" value="13" style="text;html=1;align=center;verticalAlign=middle;resizable=0;points=[];autosize=1;strokeColor=none;fillColor=none;fontFamily=Lucida Console;fontSize=12;fontColor=default;labelBackgroundColor=none;" vertex="1" parent="1">
          <mxGeometry x="2500" y="10" width="40" height="30" as="geometry" />
        </mxCell>
        <mxCell id="MOXKfGCyuzbZlonc4yIH-68" value="14" style="text;html=1;align=center;verticalAlign=middle;resizable=0;points=[];autosize=1;strokeColor=none;fillColor=none;fontFamily=Lucida Console;fontSize=12;fontColor=default;labelBackgroundColor=none;" vertex="1" parent="1">
          <mxGeometry x="2700" y="10" width="40" height="30" as="geometry" />
        </mxCell>
        <mxCell id="MOXKfGCyuzbZlonc4yIH-69" value="15" style="text;html=1;align=center;verticalAlign=middle;resizable=0;points=[];autosize=1;strokeColor=none;fillColor=none;fontFamily=Lucida Console;fontSize=12;fontColor=default;labelBackgroundColor=none;" vertex="1" parent="1">
          <mxGeometry x="2900" y="10" width="40" height="30" as="geometry" />
        </mxCell>
        <mxCell id="MOXKfGCyuzbZlonc4yIH-70" value="16" style="text;html=1;align=center;verticalAlign=middle;resizable=0;points=[];autosize=1;strokeColor=none;fillColor=none;fontFamily=Lucida Console;fontSize=12;fontColor=default;labelBackgroundColor=none;" vertex="1" parent="1">
          <mxGeometry x="3100" y="10" width="40" height="30" as="geometry" />
        </mxCell>
        <mxCell id="MOXKfGCyuzbZlonc4yIH-71" value="Лабораторная работа №6 Молчанов Степан Б24-516" style="text;html=1;align=center;verticalAlign=middle;resizable=0;points=[];autosize=1;strokeColor=none;fillColor=none;fontFamily=Lucida Console;fontSize=12;fontColor=default;labelBackgroundColor=none;" vertex="1" parent="1">
          <mxGeometry x="2840" y="1960" width="360" height="30" as="geometry" />
        </mxCell>
      </root>
    </mxGraphModel>
  </diagram>
</mxfile>
